<?xml version="1.0" standalone="no"?>
<!DOCTYPE svg PUBLIC "-//W3C//DTD SVG 20010904//EN"
 "http://www.w3.org/TR/2001/REC-SVG-20010904/DTD/svg10.dtd">
<svg version="1.0" xmlns="http://www.w3.org/2000/svg"
 width="3300.000000pt" height="2550.000000pt" viewBox="0 0 3300.000000 2550.000000"
 preserveAspectRatio="xMidYMid meet">

<g transform="translate(0.000000,2550.000000) scale(0.100000,-0.100000)"
fill="#000000" stroke="none">
<path d="M16260 23730 c-54 -4 -41 -6 80 -12 210 -9 333 -46 490 -147 41 -27
199 -117 350 -201 375 -207 336 -187 885 -475 913 -480 1280 -691 1695 -973
461 -314 1028 -771 1413 -1140 l162 -155 -160 159 c-88 88 -221 213 -295 278
-145 127 -579 481 -750 612 -193 147 -534 379 -780 528 -80 49 -157 97 -172
107 -15 11 -30 19 -33 19 -3 0 -83 44 -178 99 -162 93 -354 197 -617 333 -63
33 -137 73 -165 88 -65 36 -185 99 -425 225 -107 56 -220 116 -250 132 -66 36
-247 136 -310 171 -25 14 -92 51 -150 83 -58 31 -143 82 -190 112 -102 65
-146 88 -225 115 -114 38 -248 54 -375 42z"/>
<path d="M16158 23713 c6 -2 18 -2 25 0 6 3 1 5 -13 5 -14 0 -19 -2 -12 -5z"/>
<path d="M16118 23703 c7 -3 16 -2 19 1 4 3 -2 6 -13 5 -11 0 -14 -3 -6 -6z"/>
<path d="M16170 23604 c-103 -27 -262 -115 -314 -173 -30 -33 -14 -34 30 -3
84 61 244 138 258 125 3 -3 65 -9 138 -13 114 -7 145 -12 213 -39 265 -102
409 -297 405 -546 -2 -98 0 -106 15 -60 17 50 18 157 4 227 -14 65 -56 156
-103 223 -41 57 -32 69 23 31 45 -32 85 -80 130 -156 39 -66 32 -30 -12 60
-45 93 -167 213 -268 263 -114 56 -210 77 -348 76 -68 0 -139 -6 -171 -15z"/>
<path d="M16458 23453 c7 -3 16 -2 19 1 4 3 -2 6 -13 5 -11 0 -14 -3 -6 -6z"/>
<path d="M16916 23404 c57 -70 87 -133 114 -240 24 -90 21 -127 -16 -236 -28
-84 -47 -108 -85 -108 -23 0 -30 -7 -45 -46 -9 -25 -27 -57 -38 -72 -17 -22
-18 -25 -3 -19 13 5 17 1 17 -17 0 -31 -8 -36 -120 -81 -52 -21 -121 -51 -153
-67 -37 -18 -95 -35 -163 -46 -57 -10 -102 -21 -98 -25 4 -4 0 -7 -9 -7 -9 0
-25 -10 -37 -22 l-20 -22 26 -10 c20 -9 7 -11 -68 -10 -51 0 -99 3 -106 8 -19
12 -14 29 8 23 37 -10 20 8 -25 26 -25 11 -45 23 -45 27 0 5 -20 16 -45 25
-49 19 -108 59 -99 67 3 3 -5 8 -18 12 -26 7 -62 51 -53 66 3 6 15 6 29 0 13
-5 27 -6 30 -3 3 4 6 2 6 -4 0 -15 108 -65 132 -61 13 2 -10 23 -77 71 -52 37
-105 72 -118 76 -40 16 -114 103 -131 155 -18 55 -21 92 -7 100 10 7 7 37 -12
120 l-13 60 -12 -45 c-6 -24 -13 -53 -16 -64 -2 -11 -4 -4 -5 15 l-2 35 -14
-34 c-19 -43 -19 -88 0 -107 8 -9 15 -24 15 -35 0 -10 4 -19 10 -19 5 0 7 -7
4 -15 -4 -8 -1 -15 5 -15 6 0 11 -5 11 -11 0 -5 -4 -8 -9 -5 -5 3 -5 -11 1
-32 5 -20 11 -58 14 -85 10 -116 136 -258 304 -342 49 -25 53 -25 36 -6 -19
21 -19 21 0 21 36 0 93 -21 121 -44 63 -51 96 -59 232 -54 137 6 212 24 331
82 69 33 146 105 184 171 13 24 29 39 39 39 18 -2 67 53 105 117 34 56 62 181
62 273 0 152 -54 297 -151 412 -65 77 -85 84 -23 8z m-1081 -857 c16 -23 35
-52 42 -65 11 -20 10 -21 -6 -13 -27 15 -91 89 -91 106 0 27 25 15 55 -28z
m605 -147 c0 -5 -5 -10 -11 -10 -5 0 -7 5 -4 10 3 6 8 10 11 10 2 0 4 -4 4
-10z m-140 -50 c0 -5 -13 -10 -29 -10 -16 0 -32 -6 -34 -12 -3 -7 -6 -3 -6 10
-1 19 4 22 34 22 19 0 35 -4 35 -10z"/>
<path d="M16556 23416 c178 -89 271 -287 204 -435 -25 -54 -32 -50 -19 8 12
54 6 63 -16 22 -13 -25 -22 -31 -49 -31 -29 0 -34 -4 -44 -36 -8 -27 -8 -41 1
-56 10 -16 8 -22 -11 -38 -12 -10 -41 -21 -64 -25 -22 -4 -68 -20 -102 -36
-34 -16 -70 -29 -81 -29 -38 0 -60 -11 -71 -34 -9 -19 -7 -26 8 -38 15 -12 16
-17 4 -33 -10 -14 -17 -16 -32 -7 -18 11 -18 11 4 12 12 0 22 5 22 11 0 7 -7
8 -17 4 -10 -4 -26 -8 -35 -9 -25 -3 -35 -16 -12 -16 10 0 28 -7 38 -15 37
-28 169 -13 261 29 57 26 125 89 125 116 0 24 26 46 33 28 9 -20 64 49 82 101
50 152 12 315 -100 425 -52 50 -125 97 -175 110 -14 4 7 -9 46 -28z"/>
<path d="M16240 23416 c-54 -15 -104 -40 -147 -73 -55 -41 -37 -44 42 -6 l75
35 77 -17 c189 -42 314 -150 330 -286 7 -57 19 -72 29 -34 10 42 -4 114 -36
182 l-29 63 23 0 c15 0 39 -17 66 -46 23 -25 44 -44 46 -42 2 3 -12 29 -31 60
-42 66 -108 120 -184 149 -69 26 -198 34 -261 15z"/>
<path d="M15938 23247 c-34 -66 -39 -77 -34 -77 7 0 58 101 54 106 -2 2 -11
-11 -20 -29z"/>
<path d="M16410 23256 c0 -2 7 -7 16 -10 8 -3 12 -2 9 4 -6 10 -25 14 -25 6z"/>
<path d="M16294 23239 c-17 -5 -39 -18 -49 -29 -18 -20 -18 -20 19 -5 l37 16
48 -41 c26 -22 54 -53 62 -68 8 -15 18 -30 23 -33 19 -14 -4 -36 -43 -43 -42
-6 -79 -42 -62 -59 5 -5 7 -16 4 -23 -6 -17 9 -17 59 -4 25 7 44 22 58 45 13
20 26 32 35 29 33 -13 47 94 19 151 -15 32 -15 35 2 -45 3 -15 -1 -33 -10 -45
-15 -19 -15 -19 -17 15 -1 19 -3 27 -6 17 -8 -33 -44 -16 -59 28 -17 49 -5 64
31 41 26 -17 26 -17 16 2 -12 23 -88 62 -117 61 -10 0 -33 -5 -50 -10z"/>
<path d="M16450 23236 c0 -2 8 -10 18 -17 15 -13 16 -12 3 4 -13 16 -21 21
-21 13z"/>
<path d="M15947 23142 c-14 -34 -23 -111 -16 -137 6 -25 3 -115 -3 -115 -24 0
18 -87 57 -120 15 -13 17 -12 14 10 -6 47 16 34 46 -27 28 -58 41 -70 110
-102 6 -2 -1 8 -14 22 -24 27 -16 35 17 18 9 -5 37 -5 62 -2 l45 7 -38 13
c-21 7 -52 26 -70 42 -17 16 -42 29 -55 29 -13 0 -21 4 -18 8 3 5 -4 16 -15
25 -23 20 -25 43 -4 51 18 7 47 -3 40 -14 -8 -13 70 -37 104 -32 l33 5 -48 30
c-27 16 -66 43 -87 59 -20 17 -44 28 -51 25 -27 -11 -66 17 -76 53 -14 51 -13
80 4 74 8 -3 17 -1 20 4 3 5 -3 12 -14 15 -19 5 -26 30 -22 80 3 27 -5 20 -21
-21z"/>
<path d="M16196 23138 c-16 -79 -16 -126 1 -139 15 -12 16 -12 10 3 -3 10 -2
20 3 23 7 5 23 -25 25 -47 1 -16 26 -33 33 -22 4 6 13 13 21 15 9 3 3 15 -20
37 -26 25 -30 35 -21 44 10 10 17 10 32 0 17 -10 21 -10 27 4 8 22 -15 35 -54
31 -33 -3 -38 3 -34 45 3 26 -18 31 -23 6z"/>
<path d="M15887 23109 c-4 -13 -7 -42 -7 -63 0 -37 1 -39 15 -20 16 21 18 57
6 88 -7 18 -8 18 -14 -5z"/>
<path d="M16315 22263 c9 -9 84 -18 352 -42 40 -4 78 -12 85 -19 9 -9 9 -12
-1 -12 -7 0 -9 -4 -6 -10 3 -6 -1 -7 -9 -4 -9 4 -16 1 -16 -6 0 -9 -16 -10
-61 -5 -49 6 -60 5 -54 -5 5 -7 4 -11 -1 -8 -63 34 -97 42 -191 45 -96 3 -102
2 -100 -17 2 -25 76 -42 168 -38 92 3 112 -14 51 -45 -16 -7 -45 -12 -65 -9
-31 3 -36 2 -31 -12 3 -9 1 -16 -5 -16 -6 0 -11 -8 -11 -18 0 -13 -13 -22 -50
-31 -27 -7 -50 -17 -50 -23 0 -6 12 -7 33 -2 17 5 46 8 62 7 17 -1 118 3 225
9 302 17 589 -5 895 -68 1087 -222 2105 -859 2941 -1839 65 -77 135 -160 154
-185 19 -25 75 -97 125 -160 325 -413 687 -977 830 -1295 130 -289 192 -456
260 -700 62 -222 103 -412 254 -1160 206 -1026 253 -1334 253 -1665 1 -138 -4
-217 -15 -272 -17 -83 -51 -171 -73 -189 -12 -10 -9 -15 17 -31 28 -17 30 -22
25 -54 -8 -42 14 -56 44 -29 51 46 103 205 68 205 -10 0 -9 3 1 9 7 5 9 11 3
14 -6 4 -4 35 4 84 24 135 3 571 -36 768 -6 28 -17 97 -25 155 -8 58 -19 128
-25 155 -5 28 -12 66 -15 85 -4 19 -12 62 -20 95 -14 59 -51 252 -60 310 -3
17 -8 43 -11 59 -5 19 -2 31 7 38 11 8 11 9 -2 5 -17 -6 -22 11 -44 158 -4 22
-15 69 -25 105 -11 36 -22 93 -25 128 -5 62 -42 266 -70 393 -8 37 -15 76 -15
88 0 12 -5 21 -11 21 -6 0 -8 -8 -6 -17 9 -33 19 -98 14 -93 -7 7 -33 114 -47
195 -46 266 -166 692 -259 925 -20 52 -26 79 -19 87 11 14 1 36 -13 27 -5 -3
-8 -2 -7 3 4 14 -112 245 -132 262 -27 24 -83 138 -77 156 4 8 2 14 -4 12 -6
-1 -14 5 -18 13 -15 29 -34 64 -58 108 -20 36 -23 46 -12 54 11 8 10 9 -3 5
-12 -4 -33 22 -87 111 -38 64 -104 167 -145 227 -41 61 -73 112 -70 114 5 6
34 -20 30 -28 -1 -3 5 -14 16 -23 28 -28 20 -8 -20 49 -169 236 -208 289 -219
298 -6 6 -47 56 -90 111 -102 133 -227 287 -277 344 -196 222 -544 569 -652
652 -16 12 -61 51 -100 85 -40 35 -132 108 -205 163 -74 55 -138 103 -144 107
-33 28 -247 171 -340 228 -329 203 -644 357 -1015 498 -326 124 -697 221
-1035 271 -55 8 -165 31 -245 51 -132 33 -161 37 -325 42 -115 3 -176 2 -170
-4z m2494 -719 c14 -12 -19 -1 -35 12 -18 14 -18 14 6 3 14 -6 27 -13 29 -15z
m209 -112 c51 -30 91 -57 88 -59 -4 -4 -200 109 -256 147 -38 26 85 -38 168
-88z m122 -83 c0 -6 -4 -7 -10 -4 -5 3 -10 11 -10 16 0 6 5 7 10 4 6 -3 10
-11 10 -16z m118 -69 c45 -30 82 -58 82 -62 0 -10 -175 106 -186 123 -8 14 -8
14 104 -61z m117 -80 c3 -6 -1 -7 -9 -4 -18 7 -21 14 -7 14 6 0 13 -4 16 -10z
m45 -30 c8 -5 12 -11 9 -14 -3 -3 -14 1 -25 9 -21 16 -8 20 16 5z m933 -816
c119 -123 297 -328 297 -340 0 -11 -15 4 -90 94 -45 53 -162 180 -259 282 -97
102 -156 168 -132 147 25 -20 108 -103 184 -183z m722 -882 c-3 -3 -11 0 -18
7 -9 10 -8 11 6 5 10 -3 15 -9 12 -12z m30 -32 c3 -5 1 -10 -4 -10 -6 0 -11 5
-11 10 0 6 2 10 4 10 3 0 8 -4 11 -10z m962 -2337 c-4 -3 -2 -11 3 -18 7 -8 6
-12 -3 -12 -7 0 -14 9 -14 19 -1 10 3 18 9 18 6 0 8 -3 5 -7z"/>
<path d="M15934 22231 c-17 -11 -48 -19 -68 -18 -30 1 -41 -5 -72 -41 -30 -35
-39 -40 -55 -32 -18 10 -23 6 -20 -14 1 -5 -3 -12 -10 -16 -7 -5 12 -19 47
-35 33 -15 63 -34 69 -40 13 -17 55 -29 55 -16 0 5 -9 12 -19 16 -11 3 -23 15
-26 26 -4 10 -11 19 -16 19 -6 0 -7 5 -4 10 3 6 -1 10 -9 10 -20 0 -20 0 -1
37 16 31 47 47 95 48 15 0 25 6 25 14 0 16 32 27 115 40 l55 9 -65 1 c-48 1
-73 -4 -96 -18z"/>
<path d="M16118 22233 c7 -3 16 -2 19 1 4 3 -2 6 -13 5 -11 0 -14 -3 -6 -6z"/>
<path d="M15990 22200 c-9 -6 -10 -10 -3 -10 6 0 15 5 18 10 8 12 4 12 -15 0z"/>
<path d="M16200 22176 c0 -9 5 -16 10 -16 6 0 10 4 10 9 0 6 -4 13 -10 16 -5
3 -10 -1 -10 -9z"/>
<path d="M16108 22157 c-17 -20 -18 -21 -28 -4 -9 13 -15 15 -31 7 -10 -6 -19
-17 -19 -25 0 -8 -5 -15 -11 -15 -5 0 -8 -4 -5 -9 7 -10 -20 -9 -30 2 -12 12
-24 8 -24 -8 0 -8 7 -15 15 -15 8 0 15 -7 15 -15 0 -9 9 -15 25 -15 20 0 25 5
25 24 0 29 10 37 50 38 19 1 32 7 35 18 4 12 13 16 30 12 18 -3 25 0 25 12 0
25 -51 20 -72 -7z"/>
<path d="M16207 22144 c-14 -14 -6 -24 19 -24 16 0 24 5 22 13 -5 14 -31 21
-41 11z"/>
<path d="M16160 22120 c-12 -8 -11 -10 8 -10 12 0 22 5 22 10 0 13 -11 13 -30
0z"/>
<path d="M16327 22070 c6 -21 46 -28 72 -11 16 10 7 16 -41 25 -33 6 -36 5
-31 -14z"/>
<path d="M16232 22061 c-4 -12 -11 -22 -15 -22 -4 1 -7 -1 -7 -4 0 -3 0 -14 0
-25 0 -22 34 -28 46 -8 4 7 3 8 -5 4 -20 -13 -26 26 -6 40 14 11 16 17 7 26
-9 9 -13 6 -20 -11z"/>
<path d="M16270 22070 c0 -5 4 -10 9 -10 6 0 13 5 16 10 3 6 -1 10 -9 10 -9 0
-16 -4 -16 -10z"/>
<path d="M16050 22031 c0 -12 6 -21 15 -21 8 0 15 4 15 9 0 5 -7 14 -15 21
-13 10 -15 9 -15 -9z"/>
<path d="M15746 22018 c3 -5 10 -6 15 -3 13 9 11 12 -6 12 -8 0 -12 -4 -9 -9z"/>
<path d="M16161 22016 c-9 -10 -8 -15 4 -20 10 -4 15 1 15 14 0 24 -4 25 -19
6z"/>
<path d="M14590 21871 c-175 -60 -249 -90 -227 -91 4 0 49 16 100 34 50 19
145 51 209 71 64 19 120 40 123 45 9 15 6 14 -205 -59z"/>
<path d="M16260 21079 c-206 -7 -240 -10 -457 -45 -757 -122 -1438 -474 -2099
-1085 -120 -111 -405 -404 -462 -474 -22 -28 -61 -70 -87 -95 -26 -25 -78 -85
-115 -135 -36 -49 -75 -97 -84 -105 -10 -8 -46 -48 -79 -90 -34 -41 -91 -109
-127 -150 -104 -118 -346 -428 -443 -568 -266 -383 -327 -562 -482 -1412 -48
-265 -153 -802 -205 -1050 -75 -356 -91 -445 -89 -488 l3 -43 -148 -146 c-215
-212 -314 -352 -392 -555 -27 -69 -38 -114 -42 -174 -5 -94 -13 -84 138 -169
170 -96 451 -272 458 -287 10 -21 26 0 62 76 41 91 108 195 203 318 l60 77
-59 61 c-74 77 -91 103 -110 167 -13 46 -13 55 0 87 41 97 172 100 391 9 33
-14 67 -28 75 -33 10 -5 27 2 50 20 38 30 200 130 209 130 6 -1 46 -60 86
-126 11 -19 26 -34 33 -34 6 0 12 -4 12 -10 0 -16 15 -12 92 24 132 61 322
124 423 141 22 4 74 14 115 22 107 22 391 22 542 0 211 -31 452 -117 677 -242
35 -19 72 -35 82 -35 10 0 41 25 70 55 28 30 56 55 61 55 5 0 14 5 21 10 91
77 202 100 245 52 18 -21 21 -33 17 -70 -7 -58 -18 -77 -79 -140 -41 -42 -48
-55 -37 -62 21 -12 -27 -24 -101 -24 -32 -1 -58 -4 -58 -7 0 -3 37 -41 83 -86
45 -44 98 -98 117 -120 l35 -41 95 19 c88 17 480 72 754 105 244 29 215 37
-240 68 -203 14 -430 29 -504 34 l-135 9 100 1 c169 3 845 -37 989 -58 149
-22 120 -41 -112 -70 -86 -11 -199 -29 -251 -40 -53 -10 -141 -26 -196 -35
-100 -16 -357 -60 -427 -73 l-37 -7 50 -75 c28 -41 75 -124 104 -183 29 -59
59 -115 68 -125 9 -9 20 -28 25 -42 8 -20 27 -31 93 -54 79 -28 91 -30 249
-29 91 0 210 5 265 11 55 6 152 16 215 22 134 12 272 29 315 39 25 6 31 13 33
41 5 54 -7 118 -24 124 -9 3 -46 -1 -82 -10 -61 -14 -232 -42 -480 -79 -137
-20 -308 -29 -316 -17 -9 14 42 29 163 47 98 15 288 50 599 112 102 20 135 24
141 14 9 -14 188 -48 478 -90 233 -34 374 -39 536 -19 87 11 99 10 113 -4 27
-27 10 -64 -42 -94 -44 -26 -51 -27 -177 -25 -73 1 -174 6 -226 11 -52 6 -96
8 -98 6 -4 -4 33 -10 182 -34 66 -10 73 -37 20 -77 -32 -25 -47 -28 -153 -36
-72 -5 -157 -4 -222 2 -58 6 -166 9 -240 7 -111 -2 -137 0 -147 12 -10 12 -12
-126 -13 -652 l0 -667 26 -61 c15 -33 29 -59 31 -56 2 2 -3 21 -11 41 -20 47
-20 59 0 22 l15 -28 20 25 c10 13 19 27 19 30 0 3 14 25 30 48 17 22 30 48 30
56 0 30 65 135 118 190 30 31 64 77 77 102 24 46 37 60 165 169 41 35 82 74
90 87 8 13 19 24 25 24 6 0 31 18 55 40 25 22 52 40 61 40 9 0 34 14 55 31 21
17 58 39 81 50 24 11 43 23 43 27 0 4 15 16 33 27 17 10 35 23 38 28 11 15 89
21 89 7 0 -7 2 -11 5 -8 3 3 12 74 21 159 8 85 22 183 30 218 38 168 135 392
230 536 20 30 35 57 33 58 -2 2 -80 16 -174 31 -93 15 -188 31 -210 36 -22 5
-137 25 -255 44 -368 60 -550 84 -550 72 0 -15 66 -102 127 -169 66 -72 83
-108 63 -132 -19 -22 -26 -19 -47 23 -14 25 -59 67 -138 128 -66 50 -120 95
-122 100 -2 5 9 24 24 41 28 32 29 32 188 48 336 35 865 66 1075 64 l125 -2
-125 -8 c-69 -4 -235 -15 -370 -24 -289 -18 -613 -45 -618 -50 -7 -7 37 -14
218 -35 297 -36 560 -70 665 -87 182 -29 175 -29 213 17 33 39 36 65 7 53 -8
-3 -15 0 -15 6 0 6 10 11 23 12 12 0 31 2 41 4 24 5 168 147 158 156 -11 11
-65 14 -80 5 -11 -6 -8 -11 9 -20 38 -19 36 -37 -3 -25 -58 17 -217 38 -408
53 -250 21 -782 39 -903 30 l-98 -7 -24 -47 c-13 -26 -32 -49 -42 -51 -10 -2
-97 -2 -193 1 l-175 5 -31 62 c-38 77 -60 103 -91 103 -12 0 -23 5 -23 10 0 6
5 10 10 10 37 0 -31 163 -132 315 -131 197 -422 491 -618 625 -19 13 -37 27
-40 30 -16 20 -224 141 -335 195 -412 201 -772 293 -1210 311 -191 8 -337 -4
-605 -47 -150 -25 -462 -110 -574 -156 -32 -13 -59 -23 -61 -21 -7 10 -36 146
-46 223 -14 108 -6 461 17 700 8 88 21 238 29 334 8 95 17 187 20 205 3 17 12
135 21 261 16 237 53 463 94 570 53 141 68 175 98 228 18 31 47 74 65 95 18
20 50 59 72 87 87 109 278 281 353 318 30 15 65 36 76 46 12 11 46 29 76 41
30 12 111 49 180 82 69 33 158 71 199 85 41 13 87 33 102 44 34 24 273 89 384
105 17 2 41 8 55 13 14 5 61 16 105 26 44 9 103 23 130 30 28 8 59 16 70 19
11 3 54 16 95 30 41 15 86 26 100 26 14 0 34 6 45 14 22 15 106 36 163 41 20
2 72 13 115 24 51 13 118 20 190 22 112 2 112 2 197 -38 86 -41 112 -61 165
-128 17 -20 35 -42 40 -49 35 -38 94 -141 114 -197 12 -35 29 -77 36 -94 8
-16 16 -66 18 -110 4 -88 20 -124 62 -143 14 -7 76 -18 138 -27 346 -45 501
-109 608 -250 70 -93 98 -176 124 -370 14 -104 88 -240 204 -375 42 -49 151
-218 151 -234 0 -3 20 -47 45 -97 44 -90 79 -193 135 -399 63 -231 81 -285
135 -412 100 -234 160 -352 281 -555 65 -109 126 -206 135 -216 15 -17 20 -16
100 19 193 84 471 166 695 205 89 16 131 27 131 36 0 7 -3 13 -7 13 -4 0 -10
19 -13 43 -3 23 -15 85 -26 137 -40 186 -105 583 -131 795 -13 108 -60 373
-96 545 -40 193 -124 394 -250 601 -31 52 -74 125 -96 163 -21 38 -42 74 -47
80 -5 6 -19 36 -30 67 -23 61 -22 79 19 219 12 41 24 86 27 100 8 33 67 105
108 130 33 21 171 63 240 74 78 13 190 9 245 -7 30 -8 88 -24 128 -33 41 -10
122 -44 185 -76 62 -32 153 -78 203 -103 50 -25 99 -53 110 -63 10 -10 37 -28
59 -42 54 -32 198 -167 331 -311 22 -24 74 -73 114 -109 108 -95 228 -219 252
-262 12 -21 25 -38 30 -38 4 0 8 -7 8 -16 0 -9 13 -33 29 -53 15 -20 36 -52
46 -71 10 -19 22 -41 28 -49 6 -7 12 -18 13 -25 7 -44 28 -100 45 -117 10 -10
19 -25 19 -32 0 -7 9 -37 20 -67 11 -30 20 -66 20 -80 0 -14 6 -37 14 -51 7
-15 18 -48 24 -75 15 -63 42 -175 61 -249 6 -22 13 -65 16 -95 13 -138 18
-170 40 -237 13 -40 26 -92 29 -115 7 -59 31 -187 51 -278 9 -41 23 -120 32
-175 22 -152 40 -238 53 -270 5 -11 11 -46 13 -77 3 -32 9 -63 13 -70 11 -17
13 -30 15 -105 1 -39 6 -60 12 -56 6 4 8 0 4 -11 -4 -10 -3 -15 3 -11 6 3 10
1 10 -5 0 -15 22 -36 100 -95 122 -93 266 -214 288 -245 l23 -30 -23 -9 c-13
-4 -46 -11 -74 -15 -28 -3 -127 -34 -220 -67 -93 -33 -204 -72 -248 -85 -116
-35 -354 -173 -339 -197 4 -6 -8 -7 -33 -3 -36 6 -33 4 36 -37 94 -54 155 -94
203 -131 l37 -28 47 17 c114 41 282 87 323 88 25 1 60 -4 77 -12 39 -16 73
-67 73 -107 0 -50 -46 -130 -119 -207 -39 -41 -71 -77 -71 -80 0 -3 26 -38 57
-78 79 -103 132 -188 188 -299 26 -52 49 -97 51 -99 1 -2 22 12 46 32 58 47
241 162 385 243 65 36 137 78 161 92 l43 27 -6 55 c-31 272 -199 538 -535 846
-52 47 -55 53 -52 92 2 23 -4 83 -13 134 -23 125 -53 319 -71 453 -8 61 -20
142 -28 180 -40 208 -58 310 -86 505 -18 118 -40 253 -50 300 -23 105 -67 345
-86 464 -27 176 -124 556 -173 679 -90 225 -281 558 -430 747 -37 47 -91 117
-121 155 -150 195 -322 389 -559 629 -607 615 -1164 989 -1836 1234 -275 101
-573 167 -925 206 -177 20 -267 23 -490 15z m-3230 -5919 c0 -8 -33 -32 -50
-35 -3 -1 -23 -5 -45 -10 -22 -4 -44 -11 -50 -15 -5 -4 -21 -10 -35 -13 -14
-3 -56 -14 -95 -25 -38 -11 -71 -19 -73 -17 -8 8 20 46 31 42 7 -2 23 2 37 9
20 11 243 71 273 73 4 1 7 -3 7 -9z m2780 -474 c0 -2 -7 -9 -15 -16 -12 -10
-15 -10 -15 4 0 9 7 16 15 16 8 0 15 -2 15 -4z m-440 -250 c0 -3 -4 -8 -10
-11 -5 -3 -10 -1 -10 4 0 6 5 11 10 11 6 0 10 -2 10 -4z m821 -44 c17 -22 18
-28 7 -37 -8 -5 -60 -45 -116 -88 -59 -45 -109 -91 -118 -110 -22 -42 -21 -42
-38 -28 -21 18 -6 50 53 119 26 32 62 78 80 104 54 81 91 92 132 40z m159
-102 c0 -13 -40 -13 -60 0 -11 7 -5 10 23 10 20 0 37 -4 37 -10z"/>
<path d="M12899 20893 c-13 -16 -12 -17 4 -4 9 7 17 15 17 17 0 8 -8 3 -21
-13z"/>
<path d="M21440 20505 c19 -19 36 -35 39 -35 3 0 -10 16 -29 35 -19 19 -36 35
-39 35 -3 0 10 -16 29 -35z"/>
<path d="M21500 20435 c13 -14 26 -25 28 -25 3 0 -5 11 -18 25 -13 14 -26 25
-28 25 -3 0 5 -11 18 -25z"/>
<path d="M21545 20380 c10 -11 20 -20 23 -20 3 0 -3 9 -13 20 -10 11 -20 20
-23 20 -3 0 3 -9 13 -20z"/>
<path d="M21580 20336 c0 -2 8 -10 18 -17 15 -13 16 -12 3 4 -13 16 -21 21
-21 13z"/>
<path d="M21610 20296 c0 -2 8 -10 18 -17 15 -13 16 -12 3 4 -13 16 -21 21
-21 13z"/>
<path d="M21180 19337 c0 -10 51 -87 57 -87 5 0 -11 27 -44 75 -7 11 -13 16
-13 12z"/>
<path d="M21240 19230 c0 -5 5 -10 11 -10 5 0 7 5 4 10 -3 6 -8 10 -11 10 -2
0 -4 -4 -4 -10z"/>
<path d="M21270 19190 c6 -11 13 -20 16 -20 2 0 0 9 -6 20 -6 11 -13 20 -16
20 -2 0 0 -9 6 -20z"/>
<path d="M21580 18641 c0 -6 4 -13 10 -16 6 -3 7 1 4 9 -7 18 -14 21 -14 7z"/>
<path d="M22031 17314 c0 -11 3 -14 6 -6 3 7 2 16 -1 19 -3 4 -6 -2 -5 -13z"/>
<path d="M22159 16754 c-3 -26 4 -80 10 -87 5 -4 6 14 3 40 -4 45 -11 68 -13
47z"/>
<path d="M10510 16734 c0 -8 5 -12 10 -9 6 4 8 11 5 16 -9 14 -15 11 -15 -7z"/>
<path d="M9641 16624 c0 -11 3 -14 6 -6 3 7 2 16 -1 19 -3 4 -6 -2 -5 -13z"/>
<path d="M22181 16614 c0 -11 3 -14 6 -6 3 7 2 16 -1 19 -3 4 -6 -2 -5 -13z"/>
<path d="M9627 16571 c-4 -17 -3 -21 5 -13 5 5 8 16 6 23 -3 8 -7 3 -11 -10z"/>
<path d="M9621 16524 c0 -11 3 -14 6 -6 3 7 2 16 -1 19 -3 4 -6 -2 -5 -13z"/>
<path d="M9601 16424 c0 -11 3 -14 6 -6 3 7 2 16 -1 19 -3 4 -6 -2 -5 -13z"/>
<path d="M9591 16384 c0 -11 3 -14 6 -6 3 7 2 16 -1 19 -3 4 -6 -2 -5 -13z"/>
<path d="M9581 16334 c0 -11 3 -14 6 -6 3 7 2 16 -1 19 -3 4 -6 -2 -5 -13z"/>
<path d="M9572 16285 c0 -16 2 -22 5 -12 2 9 2 23 0 30 -3 6 -5 -1 -5 -18z"/>
<path d="M9562 16230 c0 -14 2 -19 5 -12 2 6 2 18 0 25 -3 6 -5 1 -5 -13z"/>
<path d="M9552 16180 c0 -14 2 -19 5 -12 2 6 2 18 0 25 -3 6 -5 1 -5 -13z"/>
<path d="M9542 16120 c0 -14 2 -19 5 -12 2 6 2 18 0 25 -3 6 -5 1 -5 -13z"/>
<path d="M9532 16070 c0 -14 2 -19 5 -12 2 6 2 18 0 25 -3 6 -5 1 -5 -13z"/>
<path d="M9522 16020 c0 -14 2 -19 5 -12 2 6 2 18 0 25 -3 6 -5 1 -5 -13z"/>
<path d="M9512 15960 c0 -14 2 -19 5 -12 2 6 2 18 0 25 -3 6 -5 1 -5 -13z"/>
<path d="M9502 15910 c0 -14 2 -19 5 -12 2 6 2 18 0 25 -3 6 -5 1 -5 -13z"/>
<path d="M9492 15855 c0 -16 2 -22 5 -12 2 9 2 23 0 30 -3 6 -5 -1 -5 -18z"/>
<path d="M9482 15795 c0 -16 2 -22 5 -12 2 9 2 23 0 30 -3 6 -5 -1 -5 -18z"/>
<path d="M9472 15735 c0 -16 2 -22 5 -12 2 9 2 23 0 30 -3 6 -5 -1 -5 -18z"/>
<path d="M9462 15675 c0 -16 2 -22 5 -12 2 9 2 23 0 30 -3 6 -5 -1 -5 -18z"/>
<path d="M9452 15610 c0 -14 2 -19 5 -12 2 6 2 18 0 25 -3 6 -5 1 -5 -13z"/>
<path d="M9442 15545 c0 -16 2 -22 5 -12 2 9 2 23 0 30 -3 6 -5 -1 -5 -18z"/>
<path d="M9432 15485 c0 -16 2 -22 5 -12 2 9 2 23 0 30 -3 6 -5 -1 -5 -18z"/>
<path d="M9422 15425 c0 -16 2 -22 5 -12 2 9 2 23 0 30 -3 6 -5 -1 -5 -18z"/>
<path d="M9412 15360 c0 -14 2 -19 5 -12 2 6 2 18 0 25 -3 6 -5 1 -5 -13z"/>
<path d="M9402 15285 c0 -16 2 -22 5 -12 2 9 2 23 0 30 -3 6 -5 -1 -5 -18z"/>
<path d="M9392 15215 c0 -16 2 -22 5 -12 2 9 2 23 0 30 -3 6 -5 -1 -5 -18z"/>
<path d="M9382 15130 c0 -14 2 -19 5 -12 2 6 2 18 0 25 -3 6 -5 1 -5 -13z"/>
<path d="M9371 15054 c0 -11 3 -14 6 -6 3 7 2 16 -1 19 -3 4 -6 -2 -5 -13z"/>
<path d="M13235 14853 c-176 -24 -162 -19 -164 -56 -1 -17 -2 -39 -1 -47 3
-62 -2 -126 -9 -133 -11 -11 -17 11 -25 86 -3 32 -1 47 7 47 7 1 1 8 -13 16
-24 15 -24 15 -2 10 18 -3 21 -1 13 8 -7 9 -7 16 2 26 10 10 9 11 -2 5 -8 -4
-31 -10 -52 -11 -59 -6 -181 -50 -318 -115 -251 -120 -459 -285 -596 -474 -17
-22 -46 -60 -66 -85 -43 -53 -128 -218 -171 -334 -82 -222 -104 -517 -55 -751
39 -182 131 -404 216 -520 20 -27 44 -61 52 -75 62 -98 256 -277 414 -383 129
-86 359 -191 437 -199 18 -2 36 -6 39 -10 10 -15 155 -48 269 -63 216 -28 459
-17 663 31 l107 26 0 281 c1 598 7 943 17 977 6 19 14 47 17 63 4 15 11 27 17
27 5 0 8 -12 7 -27 -2 -23 1 -28 17 -25 17 2 17 1 4 -7 -11 -7 -15 -25 -14
-71 1 -33 5 -63 8 -67 4 -3 2 -13 -2 -22 -9 -16 -6 -176 3 -218 3 -13 1 -23
-3 -23 -4 0 -7 -17 -5 -37 1 -21 3 -38 4 -38 1 0 2 -19 3 -43 1 -23 -1 -42 -4
-42 -4 0 -6 -19 -6 -43 0 -24 -3 -49 -7 -55 -4 -7 -2 -12 4 -12 12 0 11 -56
-2 -82 -4 -9 -4 -19 0 -22 10 -6 8 -178 -2 -194 -4 -7 -3 -12 2 -12 5 0 9 -60
8 -133 -1 -140 1 -146 44 -130 8 3 25 7 38 9 34 4 225 103 320 165 l82 54 0
95 c1 246 9 1708 10 1728 0 12 1 29 1 37 0 8 0 23 0 33 1 9 1 28 0 42 -1 14
-1 32 -1 40 1 8 -1 87 -4 175 -2 88 -4 179 -5 202 -1 41 -3 44 -74 92 -71 47
-265 151 -284 151 -5 0 -9 -26 -8 -57 2 -32 -2 -63 -7 -70 -6 -7 -5 -19 1 -32
14 -25 14 -41 0 -41 -6 0 -9 7 -5 15 3 8 1 15 -4 15 -6 0 -9 12 -8 28 1 15 -2
38 -6 51 -6 18 -5 22 5 15 11 -6 12 -5 2 7 -7 8 -10 24 -7 35 7 27 -16 54 -59
69 -43 15 -41 18 -38 -110 8 -281 7 -1135 -2 -1135 -5 0 -7 -13 -3 -30 9 -46
-10 -36 -23 13 -6 23 -15 53 -18 67 -4 14 -10 297 -13 629 l-5 605 -50 13
c-60 16 -205 41 -259 45 l-40 3 -3 -100 c-1 -55 -3 -108 -3 -117 0 -10 0 -24
0 -30 1 -7 -1 -22 -4 -33 -2 -11 -5 -24 -5 -29 -1 -4 -7 -6 -15 -3 -8 3 -16 1
-19 -6 -2 -6 -6 -3 -10 7 -4 10 -3 15 3 11 6 -3 10 1 10 11 0 13 3 14 15 4 8
-7 4 9 -10 37 -25 49 -32 79 -16 69 5 -4 4 5 -2 18 -7 13 -16 22 -22 19 -5 -2
-3 1 5 9 14 12 17 31 12 91 -1 11 -7 16 -14 12 -7 -4 -2 2 11 13 l24 19 -44 6
c-72 9 -197 5 -304 -10z m632 -138 c33 -34 54 -66 58 -87 3 -18 4 -292 3 -608
l-3 -575 -23 47 c-31 62 -92 130 -152 169 -32 21 -51 41 -55 58 -5 26 -1 1056
5 1077 2 8 20 6 59 -7 41 -15 70 -34 108 -74z m-562 77 c17 -5 40 -23 53 -42
l22 -33 0 -492 0 -493 -47 -11 c-25 -7 -73 -26 -106 -42 -47 -23 -62 -27 -69
-17 -4 7 -8 54 -9 103 0 50 -2 104 -4 120 -6 59 -5 821 1 866 l6 46 62 2 c33
1 75 -2 91 -7z m175 -61 c0 -26 6 -53 13 -60 10 -11 10 -13 0 -7 -9 5 -13 0
-13 -13 0 -12 5 -21 10 -21 7 0 7 -7 2 -17 -5 -10 -7 -78 -6 -152 2 -103 -1
-140 -12 -155 -12 -17 -12 -23 2 -44 10 -15 11 -21 3 -17 -9 6 -10 4 -3 -6 5
-8 9 -34 9 -59 0 -25 4 -51 8 -57 5 -7 4 -13 0 -13 -10 0 -9 -37 2 -62 4 -10
5 -38 2 -63 -4 -31 -3 -43 4 -39 7 4 6 -3 -1 -16 -11 -20 -10 -22 5 -16 15 5
16 4 6 -8 -7 -8 -10 -20 -7 -25 4 -5 2 -12 -3 -16 -6 -3 -8 -27 -5 -54 3 -30
1 -52 -6 -56 -5 -3 -8 -11 -5 -16 4 -5 -7 -9 -24 -9 l-31 0 0 193 c0 105 -1
208 -1 227 0 19 0 105 0 190 -2 331 1 383 18 443 9 35 33 -2 33 -52z m-667
-79 c15 -17 17 -125 17 -1320 0 -1159 -2 -1302 -16 -1302 -44 0 -180 104 -209
161 -23 43 -23 2246 0 2310 8 24 15 58 15 76 0 37 13 46 100 74 70 23 74 23
93 1z m122 -110 c2 -31 5 -118 6 -192 3 -172 8 -222 22 -213 5 3 7 1 3 -5 -3
-5 -3 -12 1 -15 5 -2 3 -2 -4 -1 -15 3 -25 -23 -12 -31 5 -4 6 -11 2 -18 -10
-16 -10 -57 0 -57 4 0 4 -8 -1 -17 -10 -21 -9 -369 1 -379 4 -4 2 -13 -4 -20
-7 -9 -7 -19 1 -33 6 -12 7 -21 3 -21 -4 0 -8 -47 -9 -105 0 -89 2 -105 15
-105 13 0 14 -2 2 -9 -11 -7 -14 -39 -15 -133 -1 -67 -5 -129 -9 -135 -5 -8
-3 -13 3 -13 7 0 9 -8 4 -22 -6 -21 -5 -22 12 -8 18 14 18 14 3 -5 -16 -21
-20 -120 -5 -143 4 -7 4 -12 -1 -12 -12 0 -10 -94 2 -102 6 -5 6 -8 -2 -8 -14
0 -12 -80 2 -80 6 0 4 -4 -3 -8 -9 -6 -10 -16 -4 -33 9 -26 5 -59 -7 -59 -5 0
-5 -17 -2 -37 4 -21 6 -150 5 -288 -1 -297 -7 -332 -49 -269 -16 25 -17 109
-19 1273 0 685 2 1273 6 1305 14 109 46 108 53 -2z m645 56 c0 -15 -15 -8 -28
12 -12 19 -11 20 8 8 11 -7 20 -16 20 -20z m-513 -4 c-3 -3 -12 -4 -19 -1 -8
3 -5 6 6 6 11 1 17 -2 13 -5z m-12 -24 c3 -5 1 -10 -4 -10 -6 0 -11 5 -11 10
0 6 2 10 4 10 3 0 8 -4 11 -10z m1277 -44 c57 -34 102 -76 124 -117 17 -31 19
-68 24 -379 3 -190 5 -673 5 -1075 -1 -671 -2 -734 -18 -775 -10 -24 -16 -49
-13 -55 5 -13 -97 -81 -135 -90 -20 -5 -32 -1 -48 16 -19 20 -21 35 -22 138
-6 1321 -7 2313 -3 2338 7 37 21 37 86 -1z m-726 -14 c-3 -3 -1 -11 5 -18 8
-9 4 -15 -13 -24 -22 -11 -22 -10 -4 4 16 13 17 16 4 16 -14 0 -16 9 -9 38 1
2 6 0 12 -3 6 -4 8 -10 5 -13z m-56 -13 c-7 -11 -14 -18 -17 -15 -3 3 0 12 7
21 18 21 23 19 10 -6z m620 -10 c0 -5 -4 -9 -10 -9 -5 0 -10 7 -10 16 0 8 5
12 10 9 6 -3 10 -10 10 -16z m-620 -23 c0 -3 -4 -8 -10 -11 -5 -3 -10 -1 -10
4 0 6 5 11 10 11 6 0 10 -2 10 -4z m-1276 -188 c8 -30 8 -1742 0 -1790 -4 -21
-11 -38 -16 -38 -17 0 -130 114 -148 150 -17 33 -56 151 -66 195 -2 11 -4 239
-5 506 0 518 0 515 51 663 24 71 26 123 4 147 -14 15 -12 21 28 70 42 51 120
119 138 119 4 0 10 -10 14 -22z m102 -70 c6 -71 9 -88 16 -88 12 0 10 -34 -2
-46 -8 -8 -6 -15 5 -24 18 -15 20 -50 3 -50 -9 0 -9 -3 -2 -8 19 -13 24 -40 7
-46 -12 -5 -13 -9 -4 -20 6 -7 9 -20 6 -28 -8 -20 -11 -138 -4 -138 3 0 3 -20
-1 -45 -4 -24 -3 -50 1 -57 4 -6 3 -21 -3 -31 -7 -14 -7 -17 1 -13 7 5 9 -14
5 -61 -3 -37 -5 -74 -5 -80 1 -14 1 -55 1 -87 -1 -11 5 -23 12 -29 10 -6 9 -7
-4 -3 -21 6 -25 -17 -17 -104 3 -36 1 -68 -4 -71 -5 -4 -6 -17 -2 -30 5 -13 7
-59 7 -102 -1 -44 3 -87 8 -97 5 -9 6 -20 3 -24 -11 -11 -9 -106 2 -106 6 0 5
-3 -2 -8 -6 -4 -11 -30 -11 -58 -1 -28 -2 -55 -3 -60 -5 -26 2 -64 11 -59 6 3
10 1 10 -4 0 -6 -4 -11 -9 -11 -6 0 -9 -9 -8 -20 1 -11 5 -20 10 -20 4 0 5 -5
1 -12 -13 -20 -16 -79 -5 -92 6 -7 6 -17 1 -26 -5 -8 -7 -17 -5 -21 3 -3 -5
-15 -16 -25 -17 -16 -22 -16 -29 -4 -6 8 -10 29 -10 45 0 17 -4 68 -8 115 -10
115 -9 1473 1 1580 5 47 8 94 8 104 0 18 1 18 17 3 9 -9 17 -27 18 -39z m1549
-1200 c10 -174 12 -960 3 -1037 -12 -101 -12 -101 -71 -101 -29 0 -68 5 -88
10 -67 19 -67 23 -75 571 l-6 486 49 30 c28 17 76 61 109 97 32 36 62 66 65
66 4 0 10 -55 14 -122z m-742 -21 c37 -27 147 -77 170 -77 8 0 18 -7 21 -16 4
-9 6 -240 6 -513 0 -555 5 -525 -71 -511 -78 14 -149 91 -160 172 -8 66 -12
968 -4 968 4 0 21 -10 38 -23z m292 -117 c13 0 12 2 18 -95 2 -38 0 -78 -6
-89 -6 -12 -6 -16 1 -12 10 6 11 -6 11 -89 0 -11 -1 -38 -3 -60 -2 -22 2 -46
8 -54 8 -11 8 -13 -1 -7 -7 4 -13 2 -13 -3 0 -6 6 -11 13 -11 7 0 8 -3 2 -8
-12 -8 -13 -57 -3 -68 4 -4 3 -14 -4 -21 -9 -11 -9 -17 3 -24 8 -5 10 -9 4 -9
-6 0 -11 -49 -12 -123 -3 -178 -3 -194 0 -287 1 -47 -1 -93 -6 -102 -11 -24
-44 -23 -52 1 -4 15 -8 486 -4 631 0 8 0 108 -1 222 -1 114 2 217 6 230 l7 23
10 -22 c6 -13 15 -23 22 -23z"/>
<path d="M18985 14855 c-108 -13 -279 -50 -335 -73 -19 -8 -35 -14 -35 -13 0
8 -160 -56 -233 -93 -167 -84 -369 -229 -366 -263 1 -7 -2 -10 -7 -7 -6 3 -48
-32 -94 -77 -89 -88 -193 -231 -244 -339 -17 -36 -25 -56 -19 -46 93 139 178
240 192 226 16 -16 11 -1233 -5 -1312 -6 -32 -16 -58 -21 -58 -34 0 -100 80
-132 159 -25 64 -33 116 -45 292 -12 165 -1 315 34 479 27 124 18 179 -26 165
-15 -5 -18 -2 -13 12 6 15 4 15 -8 -2 -25 -34 -68 -164 -95 -285 -22 -99 -26
-139 -26 -290 0 -124 4 -201 17 -265 155 -824 998 -1385 1913 -1271 61 8 116
17 122 20 7 5 10 199 10 587 0 533 2 582 18 609 29 50 48 38 45 -29 -1 -14 4
-31 11 -40 10 -12 9 -13 -1 -7 -11 7 -12 -23 -3 -73 1 -2 9 3 19 10 16 13 16
13 0 -7 -13 -15 -17 -36 -15 -91 1 -43 6 -69 12 -66 5 2 3 -2 -6 -9 -11 -9
-15 -24 -12 -43 2 -17 4 -45 3 -63 0 -25 3 -32 12 -26 10 6 11 5 1 -8 -7 -8
-10 -17 -8 -20 3 -3 1 -17 -4 -30 -7 -18 -6 -29 2 -38 9 -10 9 -14 0 -17 -9
-3 -9 -12 -2 -30 5 -13 6 -30 2 -36 -4 -7 0 -8 13 -3 17 6 16 5 -3 -13 -17
-16 -21 -28 -17 -58 3 -21 5 -44 6 -50 1 -7 4 -13 8 -13 3 0 6 -9 7 -20 1 -11
-2 -18 -6 -15 -5 2 -8 -13 -8 -35 0 -23 5 -40 11 -40 6 0 5 -4 -2 -9 -10 -6
-14 -44 -15 -150 l-2 -141 23 0 c42 0 234 71 350 129 l113 56 4 1210 c3 666 5
1248 7 1295 l2 85 -105 52 c-143 71 -273 119 -265 97 5 -12 2 -15 -10 -10 -8
3 -22 6 -31 6 -9 0 -13 6 -10 14 4 9 -1 17 -11 20 -113 34 -190 49 -312 61
-169 16 -182 15 -195 -13 -11 -25 -44 -37 -41 -15 1 8 9 19 17 24 10 6 6 9
-16 10 -16 0 -39 2 -50 3 -11 1 -65 -3 -120 -9z m350 -49 c22 -5 51 -15 65
-23 24 -14 90 -107 104 -146 3 -10 6 -226 6 -480 0 -398 -2 -496 -9 -516 0 -2
-8 3 -17 10 -9 8 -57 34 -107 59 -70 35 -92 51 -97 70 -8 30 -10 946 -3 1009
3 24 8 39 12 34 3 -6 24 -13 46 -17z m-424 -36 c48 -26 49 -35 49 -563 0 -380
-3 -497 -12 -509 -7 -8 -35 -30 -63 -48 -27 -18 -61 -43 -75 -55 -38 -34 -58
-37 -66 -12 -15 45 -21 276 -20 720 1 395 3 459 16 467 20 13 146 13 171 0z
m810 -43 c-10 -9 -11 -8 -5 6 3 10 9 15 12 12 3 -3 0 -11 -7 -18z m34 3 c-4
-6 -1 -18 6 -26 9 -11 9 -18 1 -26 -9 -9 -12 -9 -12 1 0 7 -5 9 -10 6 -6 -4
-7 -11 -4 -17 4 -7 2 -8 -4 -4 -17 10 -15 36 5 58 18 20 28 24 18 8z m199
-155 c32 -33 71 -78 85 -100 l26 -40 0 -1140 c0 -1027 -2 -1143 -16 -1175 -9
-19 -21 -48 -28 -63 -7 -18 -26 -35 -54 -47 -56 -26 -99 -25 -123 1 -18 20
-19 57 -20 1278 -1 691 1 1284 3 1319 l5 62 31 -17 c18 -10 59 -45 91 -78z
m-1560 23 c14 -20 16 -154 16 -1238 0 -668 -4 -1221 -9 -1229 -5 -8 -16 -11
-29 -6 -40 12 -141 94 -169 137 l-28 42 0 1040 c0 869 2 1051 14 1099 12 48
12 60 2 67 -8 4 -10 13 -6 20 8 13 163 90 182 90 6 0 19 -10 27 -22z m1224
-237 c8 -23 7 -32 -4 -42 -22 -18 -35 1 -28 39 8 40 19 41 32 3z m-1647 -57
c5 -6 1 -17 -11 -27 -11 -9 -21 -13 -21 -9 -4 27 -3 38 6 44 6 5 5 8 -4 8 -11
0 -11 3 0 17 13 15 14 15 18 -3 2 -10 7 -24 12 -30z m1653 -136 c3 -58 0 -78
-10 -82 -20 -8 -17 -25 4 -21 16 3 17 -8 16 -129 -1 -72 2 -147 7 -166 5 -20
5 -36 -1 -40 -5 -3 -5 -12 0 -19 10 -17 -7 -71 -23 -71 -5 0 -2 -9 8 -20 18
-20 18 -20 -13 -4 -18 8 -33 23 -34 32 0 9 -2 31 -4 47 -5 50 -4 314 2 415 2
52 5 113 5 135 1 49 21 65 32 27 5 -15 10 -62 11 -104z m-556 22 c4 0 8 -9 9
-20 1 -12 -3 -18 -9 -14 -6 4 -6 -1 1 -14 14 -27 14 -35 -1 -26 -8 5 -8 2 1
-10 11 -13 11 -16 1 -14 -21 5 -23 -20 -1 -31 16 -9 18 -16 11 -42 -6 -20 -6
-39 1 -50 7 -13 6 -19 -1 -19 -7 0 -8 -6 -1 -19 6 -10 8 -21 4 -24 -3 -3 -7
-19 -9 -34 -2 -15 -7 -45 -12 -65 -6 -24 -6 -38 0 -38 5 0 8 -12 6 -27 -2 -20
-9 -28 -23 -28 -19 0 -20 7 -22 159 -2 88 1 164 6 170 5 6 7 20 5 31 -7 36 -7
69 0 119 9 65 20 80 24 34 2 -21 6 -38 10 -38z m-1112 -4 c3 -20 -12 -11 -27
16 -9 17 -9 19 7 10 10 -5 19 -17 20 -26z m-3 -41 c-3 -9 -8 -14 -10 -11 -3 3
-2 9 2 15 9 16 15 13 8 -4z m2 -35 c3 -5 -1 -10 -10 -10 -9 0 -13 5 -10 10 3
6 8 10 10 10 2 0 7 -4 10 -10z m559 -209 c7 -11 -20 -48 -29 -39 -9 8 4 48 15
48 5 0 11 -4 14 -9z m1166 -36 c0 -2 -7 -2 -15 1 -11 5 -14 2 -9 -12 4 -11 4
-16 0 -13 -4 4 -8 16 -11 28 -3 18 -1 20 16 11 10 -6 19 -13 19 -15z m-904
-756 c27 -42 90 -104 158 -154 l27 -20 0 -514 c0 -331 -4 -518 -10 -524 -7 -7
-28 -6 -64 2 -40 9 -63 21 -89 49 -75 78 -71 49 -76 619 -4 488 0 616 18 597
4 -5 21 -30 36 -55z m735 -267 c9 -317 4 -917 -8 -944 -12 -27 -16 -28 -80
-28 -75 0 -116 15 -122 45 -2 11 -8 23 -13 26 -15 10 -24 919 -10 946 7 12 26
25 44 28 18 4 62 22 98 40 35 18 70 31 76 28 7 -2 12 -52 15 -141z m-434 62
c1 -11 4 -29 5 -41 1 -13 6 -23 11 -23 5 0 6 -10 3 -22 -10 -34 -13 -147 -4
-142 4 3 5 -2 2 -10 -3 -9 -11 -13 -17 -9 -6 4 -7 1 -2 -7 15 -25 23 -89 11
-93 -7 -3 -7 -9 3 -20 9 -12 10 -17 2 -17 -14 0 -13 -108 1 -116 5 -3 4 -12
-3 -20 -6 -8 -9 -27 -7 -43 2 -17 1 -28 -4 -25 -4 3 -4 -5 1 -18 5 -13 7 -41
5 -63 -2 -21 2 -42 8 -46 6 -4 7 -12 3 -19 -4 -6 -8 -31 -9 -55 -1 -34 1 -42
14 -38 11 3 10 1 -3 -10 -12 -10 -15 -17 -7 -22 8 -5 6 -13 -6 -26 -13 -15
-14 -22 -5 -33 8 -9 8 -15 2 -18 -6 -1 -12 -14 -14 -27 -2 -14 -10 -27 -17
-29 -9 -3 -11 1 -7 12 4 9 1 16 -6 17 -9 0 -9 2 0 5 9 4 9 13 2 31 -5 15 -8
32 -5 40 3 7 2 13 -2 13 -4 0 -8 201 -10 446 -3 355 -1 449 9 455 17 10 42 -4
46 -27z m-574 -929 c-3 -9 -8 -14 -10 -11 -3 3 -2 9 2 15 9 16 15 13 8 -4z"/>
<path d="M20173 14563 c4 -3 1 -13 -6 -21 -10 -13 -9 -14 3 -7 13 7 13 6 2 -7
-10 -13 -10 -17 0 -21 11 -3 11 -8 0 -26 -7 -11 -9 -21 -5 -21 5 0 9 -15 9
-33 1 -17 4 -60 7 -95 4 -47 2 -66 -10 -77 -9 -10 -10 -15 -3 -15 7 0 10 -6 7
-14 -3 -7 4 -21 15 -31 16 -13 18 -19 8 -25 -9 -5 -11 -21 -7 -51 9 -66 12
-75 27 -95 8 -11 10 -16 6 -12 -11 10 -36 -10 -36 -28 0 -8 8 -14 18 -14 9 0
13 -4 7 -8 -5 -4 -12 -14 -14 -22 -8 -31 -6 -220 2 -220 4 0 5 -6 0 -12 -15
-23 -9 -132 7 -146 13 -12 13 -13 -2 -8 -15 4 -16 -9 -16 -142 1 -81 5 -155
10 -164 5 -10 4 -19 -2 -23 -6 -4 -9 -46 -6 -111 2 -57 0 -106 -5 -110 -5 -3
-4 -14 3 -27 14 -26 18 -80 7 -87 -7 -5 -15 -271 -9 -305 3 -16 -1 -426 -4
-467 -2 -21 0 -38 3 -38 3 0 25 11 49 25 69 39 184 139 261 228 117 133 225
289 181 262 -10 -6 -13 1347 -3 1412 3 18 9 30 14 27 22 -13 5 21 -53 107
-105 155 -394 429 -454 429 -10 0 -14 -3 -11 -7z m309 -400 c31 -33 61 -75 66
-94 6 -19 24 -72 41 -119 l31 -85 -3 -545 -3 -545 -33 -99 c-19 -57 -31 -110
-28 -125 7 -35 -10 -71 -60 -124 -46 -50 -81 -77 -100 -77 -9 0 -12 82 -14
358 -3 679 0 1512 6 1522 10 15 34 -2 97 -67z"/>
<path d="M10240 14545 c0 -59 91 -208 137 -226 15 -5 57 -32 93 -59 47 -35 86
-54 131 -66 35 -9 76 -22 91 -30 37 -19 70 -76 62 -108 -8 -35 3 -109 21 -132
13 -18 15 -17 26 14 8 24 14 30 20 21 4 -7 6 -16 4 -19 -2 -3 13 -5 32 -4 19
1 53 -5 76 -13 l40 -14 41 39 c23 21 56 49 74 62 28 19 33 27 28 50 -4 23 -2
27 13 23 10 -3 22 1 26 7 9 14 -32 51 -90 81 -22 12 -53 36 -70 55 -27 31 -40
37 -125 54 -116 24 -196 52 -258 91 -29 18 -64 30 -90 32 -23 1 -42 7 -42 12
0 6 -4 4 -9 -4 -7 -10 -19 -12 -47 -6 -22 4 -47 7 -57 8 -20 1 -74 63 -101
115 -18 35 -26 40 -26 17z"/>
<path d="M14581 14424 c-10 -23 -10 -26 4 -20 10 4 14 2 9 -6 -4 -6 -9 -25
-10 -42 -2 -17 -7 -38 -11 -46 -12 -29 -12 -47 1 -65 8 -11 11 -31 6 -54 -8
-50 -3 -229 10 -329 6 -45 9 -86 6 -91 -3 -4 -1 -22 4 -39 4 -18 5 -34 2 -36
-4 -2 -6 -55 -4 -118 4 -166 4 -179 3 -228 -1 -25 1 -56 2 -70 2 -14 0 -37 -4
-52 -5 -17 -3 -30 3 -34 7 -5 8 -2 3 6 -5 9 -4 11 4 6 9 -6 9 -11 1 -21 -9
-11 -14 -203 -10 -390 1 -71 -4 -145 -10 -145 -4 0 -5 -11 -2 -25 2 -14 9 -22
16 -19 6 3 4 0 -5 -8 -15 -13 -22 -88 -7 -88 3 0 5 -25 3 -55 -1 -30 1 -55 5
-55 4 0 4 -16 0 -35 -8 -36 -3 -75 9 -75 4 0 8 -7 8 -15 0 -11 -4 -12 -14 -4
-9 8 -13 8 -13 1 0 -6 5 -14 10 -17 6 -4 7 -13 1 -23 -12 -25 -3 -46 15 -31 8
6 11 16 7 22 -3 6 -1 7 6 3 21 -13 173 147 255 267 42 62 76 115 76 119 0 3
15 32 33 65 18 32 45 87 59 123 l26 65 5 435 c4 414 4 438 -15 500 -45 146
-165 349 -293 494 -57 66 -158 156 -174 156 -4 0 -13 -12 -20 -26z m294 -455
c41 -45 74 -111 75 -147 0 -12 9 -54 20 -94 36 -130 51 -272 51 -473 0 -136
-4 -211 -16 -265 -23 -110 -31 -216 -16 -234 11 -12 6 -28 -23 -85 -35 -69
-50 -91 -111 -158 -58 -64 -57 -88 -56 727 1 728 3 770 31 770 4 0 24 -19 45
-41z"/>
<path d="M22045 14313 c-11 -2 -78 -15 -150 -28 -71 -13 -149 -27 -172 -30
-41 -6 -62 -20 -49 -32 3 -3 70 6 148 21 79 14 162 26 186 26 44 0 82 14 82
29 0 12 -21 18 -45 14z"/>
<path d="M22098 14235 c-6 -7 -254 -42 -365 -52 -63 -6 -94 -5 -97 2 -5 14
-93 -33 -123 -65 -23 -25 -31 -46 -13 -35 25 15 100 15 156 0 70 -20 157 -61
179 -85 23 -26 37 -80 20 -80 -7 0 -16 -6 -19 -12 -5 -10 -7 -10 -12 0 -3 6
-12 12 -19 12 -7 0 -15 8 -17 18 -7 25 -227 137 -242 122 -8 -9 -6 -15 9 -24
11 -6 39 -30 63 -52 l42 -42 -1 -248 c-1 -165 3 -280 12 -339 19 -126 19
-1019 1 -1160 -45 -340 -68 -484 -108 -684 -24 -123 -46 -227 -49 -231 -2 -3
-13 -51 -24 -106 -31 -151 -31 -215 -1 -159 8 16 22 25 36 25 18 0 25 8 33 38
13 47 70 274 82 327 13 55 31 98 45 110 7 6 15 19 18 30 3 11 3 -7 1 -41 -2
-33 -7 -68 -11 -77 -3 -9 -2 -17 4 -17 9 0 24 59 27 110 1 14 5 33 9 43 5 9 6
23 3 31 -3 8 -1 16 4 18 6 2 12 16 12 31 1 15 5 27 10 27 4 0 5 11 2 23 -4 16
-2 24 7 24 12 0 12 -10 2 -61 -11 -53 -30 -159 -51 -286 -3 -19 -10 -46 -16
-60 -5 -14 -11 -32 -12 -40 -14 -114 -42 -230 -55 -230 -5 0 -6 -8 -3 -19 3
-10 0 -22 -7 -26 -8 -5 -8 -10 1 -21 9 -11 8 -14 -7 -15 -11 0 -14 -3 -7 -5 9
-4 8 -14 -2 -38 -8 -19 -11 -36 -8 -40 13 -12 32 -5 31 12 0 9 15 80 35 157
59 233 112 495 143 703 3 21 9 51 14 67 4 17 16 93 25 170 9 77 23 178 30 225
14 80 27 257 40 515 3 61 10 181 16 268 6 86 7 161 4 167 -3 5 -6 170 -6 365
-1 296 -3 357 -15 362 -8 3 -14 14 -14 24 0 42 -30 88 -84 129 -56 42 -70 73
-48 107 4 7 57 19 117 28 124 18 225 43 225 56 0 10 -14 12 -22 4z m-310
-2470 c-1 -20 -5 -32 -9 -28 -7 7 -1 63 7 63 2 0 3 -16 2 -35z"/>
<path d="M11161 13820 c0 -82 -2 -154 -5 -159 -14 -22 -19 -529 -7 -666 41
-474 170 -893 392 -1265 85 -143 150 -234 169 -238 8 -1 65 45 125 103 61 58
124 113 140 122 17 8 69 44 117 79 53 39 94 61 103 58 30 -12 14 15 -27 47
-70 54 -187 160 -258 232 -36 37 -72 69 -81 70 -8 2 -29 13 -46 25 -17 12 -38
22 -47 22 -33 0 -133 45 -173 77 -47 39 -112 121 -136 173 -29 64 -51 174 -51
256 0 67 4 86 22 111 23 33 54 134 43 143 -3 3 -8 104 -10 225 -3 243 12 374
64 545 41 131 40 128 14 134 -30 7 -331 56 -341 56 -4 0 -7 -67 -7 -150z m256
-532 c-2 -18 -4 -6 -4 27 0 33 2 48 4 33 2 -15 2 -42 0 -60z"/>
<path d="M21330 13944 c-69 -13 -146 -23 -172 -23 l-46 -1 32 -102 32 -103
150 4 c82 2 155 6 161 10 9 4 14 45 17 124 l5 117 -27 -1 c-15 -1 -83 -12
-152 -25z"/>
<path d="M20734 13907 c2 -24 5 -48 8 -53 3 -5 5 -28 3 -51 -1 -24 1 -40 6
-38 4 3 4 -7 0 -22 -4 -16 -5 -40 -1 -54 4 -15 4 -33 -1 -40 -4 -7 -5 -17 -2
-22 3 -5 -1 -13 -8 -18 -8 -5 -9 -9 -3 -9 8 0 11 -20 10 -55 -1 -30 3 -57 9
-59 6 -3 6 -5 -1 -5 -12 -1 -10 -143 2 -163 4 -6 3 -9 -2 -5 -6 3 -10 -48 -11
-126 -1 -73 -4 -189 -5 -260 -2 -70 1 -127 5 -127 4 0 3 -9 -3 -19 -14 -28
-13 -64 3 -55 10 6 10 4 0 -7 -18 -18 -16 -34 2 -19 24 20 95 217 122 340 21
98 25 140 25 285 0 146 -3 186 -25 286 -14 64 -40 152 -57 195 -62 155 -80
179 -76 101z"/>
<path d="M10806 13594 c-27 -277 -34 -454 -31 -749 1 -159 5 -299 8 -310 3
-11 6 -28 6 -37 1 -10 4 -18 9 -18 4 0 8 217 9 483 1 315 6 513 14 573 8 62 9
96 2 108 -8 15 -12 3 -17 -50z"/>
<path d="M23777 13449 c-49 -141 -72 -231 -64 -252 3 -6 6 -1 6 12 1 13 26 98
57 188 30 91 54 169 52 175 -3 7 -25 -49 -51 -123z"/>
<path d="M23265 13456 c72 -31 127 -99 161 -196 17 -48 19 -83 18 -285 -2
-245 -17 -363 -62 -466 -23 -53 -74 -114 -117 -141 l-30 -18 31 0 c19 0 51 13
80 33 39 25 57 47 87 107 58 115 71 207 71 500 1 232 0 248 -22 301 -42 104
-133 180 -214 179 l-33 -1 30 -13z"/>
<path d="M15143 13365 c0 -22 2 -30 4 -17 2 12 2 30 0 40 -3 9 -5 -1 -4 -23z"/>
<path d="M9550 13320 l-25 -20 23 0 c28 0 62 17 62 30 0 17 -34 11 -60 -10z"/>
<path d="M9399 13289 c-22 -13 -28 -126 -11 -196 15 -60 17 -63 45 -63 29 0
29 1 21 38 -5 20 -9 78 -9 129 0 77 -3 93 -16 96 -9 3 -23 1 -30 -4z"/>
<path d="M10873 13233 c-4 -26 -8 -199 -8 -383 0 -292 2 -346 19 -416 20 -87
30 -113 42 -101 11 11 5 700 -6 711 -6 6 -10 56 -10 112 0 76 -4 105 -14 113
-12 10 -16 4 -23 -36z"/>
<path d="M9303 13024 c-3 -7 5 -55 17 -106 12 -51 28 -152 36 -223 15 -147 40
-240 91 -337 59 -114 127 -178 187 -178 22 0 19 5 -32 58 -105 105 -152 224
-182 456 -10 86 -29 196 -40 245 -19 80 -24 89 -46 94 -16 3 -28 -1 -31 -9z"/>
<path d="M23681 12974 c0 -11 3 -14 6 -6 3 7 2 16 -1 19 -3 4 -6 -2 -5 -13z"/>
<path d="M23647 12850 c-33 -123 -72 -217 -180 -435 -97 -195 -117 -246 -116
-288 l1 -32 9 37 c13 54 51 144 131 303 114 228 192 436 186 495 -2 15 -14
-18 -31 -80z"/>
<path d="M9070 12705 c0 -5 5 -17 10 -25 5 -8 10 -10 10 -5 0 6 -5 17 -10 25
-5 8 -10 11 -10 5z"/>
<path d="M9091 12655 c0 -5 42 -93 94 -195 52 -102 94 -180 94 -175 0 6 -42
93 -94 195 -52 102 -94 181 -94 175z"/>
<path d="M9280 12265 c0 -5 5 -17 10 -25 5 -8 10 -10 10 -5 0 6 -5 17 -10 25
-5 8 -10 11 -10 5z"/>
<path d="M17957 12163 c3 -10 14 -27 23 -38 10 -12 24 -65 35 -134 14 -89 23
-119 42 -139 13 -14 21 -27 18 -30 -11 -12 235 -142 369 -196 86 -35 298 -88
401 -101 28 -4 58 -9 68 -12 10 -2 17 1 17 9 0 8 -15 18 -32 23 -32 10 -33 13
-46 88 -16 99 -34 117 -144 147 -238 64 -454 173 -666 336 -45 35 -84 64 -87
64 -2 0 -2 -8 2 -17z"/>
<path d="M10951 12050 c-1 -74 15 -198 28 -214 4 -6 9 -37 10 -69 1 -31 7 -72
12 -90 12 -38 27 -118 39 -207 22 -169 74 -428 89 -443 8 -8 14 -8 23 1 18 18
28 15 28 -9 0 -11 7 -46 16 -77 16 -54 16 -90 1 -263 -1 -13 -5 -14 -19 -5
-44 27 -43 -41 4 -199 16 -55 32 -113 35 -130 5 -29 42 -153 50 -167 2 -5 0
-8 -5 -8 -5 0 -17 27 -27 60 -11 35 -22 57 -27 52 -17 -17 218 -766 382 -1222
28 -80 56 -161 61 -180 4 -19 20 -66 35 -105 55 -148 106 -294 139 -395 19
-58 41 -114 49 -125 9 -11 16 -27 16 -36 0 -22 42 -59 67 -59 38 0 68 -36 64
-77 -2 -20 -13 -16 -50 18 -32 27 -36 28 -44 12 -7 -12 -7 -18 2 -21 6 -2 25
-23 41 -47 35 -51 40 -94 10 -102 -11 -3 -17 -9 -14 -14 7 -13 -1 -11 -43 6
-19 8 -43 15 -52 14 -11 0 -9 -3 7 -9 12 -5 22 -14 22 -20 0 -6 5 -8 11 -4 8
4 8 0 0 -15 -7 -11 -16 -21 -20 -21 -5 0 -13 -20 -17 -46 -8 -39 -22 -59 -25
-36 -1 4 -5 17 -10 29 -5 13 -4 23 2 25 6 2 9 19 7 38 l-3 35 -98 -98 c-53
-54 -101 -95 -107 -92 -5 3 -10 18 -10 33 l0 26 -16 -22 c-8 -12 -34 -32 -57
-43 -23 -12 -49 -30 -57 -41 -40 -49 -70 21 -71 162 l0 92 -34 14 c-59 24 -67
21 -116 -46 -20 -27 -27 -49 -28 -95 -2 -33 -6 -62 -9 -65 -9 -7 -9 -46 1 -56
12 -13 8 -32 -8 -30 -8 1 -18 5 -21 9 -13 13 -24 7 -24 -12 0 -31 11 -51 24
-44 6 4 5 -1 -3 -10 -12 -15 -11 -20 3 -35 9 -10 16 -27 16 -38 -1 -24 -56
-98 -64 -85 -8 13 -33 197 -43 316 l-8 90 -57 3 -58 3 -2 -38 c0 -21 -2 -51
-4 -68 -1 -16 -2 -40 -3 -52 -1 -16 -7 -23 -21 -23 -11 0 -20 -3 -20 -7 1 -26
31 -147 40 -157 7 -9 3 -31 -11 -72 -17 -48 -20 -72 -15 -129 6 -63 10 -72 39
-96 18 -15 41 -46 52 -68 10 -23 21 -41 25 -41 4 0 20 -53 35 -117 15 -65 40
-151 56 -191 16 -41 43 -122 59 -180 51 -174 84 -215 147 -181 29 15 32 -4
-52 304 -34 127 -73 274 -86 328 l-23 97 -44 0 c-24 0 -52 4 -62 10 -18 10
-44 81 -60 163 -10 53 11 43 25 -12 5 -23 13 -39 18 -35 4 4 7 0 7 -9 0 -10 3
-16 8 -15 4 1 26 -8 50 -20 41 -22 42 -22 42 -2 0 31 28 24 67 -17 19 -21 44
-47 54 -58 19 -20 68 -172 69 -210 0 -10 18 -55 39 -100 21 -44 49 -116 61
-160 12 -44 53 -145 90 -225 37 -80 93 -210 124 -290 55 -142 96 -222 96 -189
0 18 -92 293 -165 490 -47 127 -55 162 -29 119 8 -14 13 -17 10 -7 -3 9 -19
65 -36 122 -17 58 -50 145 -74 194 -24 49 -49 104 -56 123 -6 18 -14 27 -17
21 -2 -7 -8 -13 -13 -13 -8 0 -23 39 -21 54 4 18 -22 111 -39 141 -25 45 -52
141 -48 167 3 17 10 5 23 -40 10 -34 21 -59 24 -54 8 13 42 6 53 -10 7 -10 8
-8 4 5 -6 20 27 24 44 5 46 -55 49 -62 55 -136 8 -97 13 -111 15 -47 2 28 4
60 5 73 1 12 -1 25 -5 27 -4 2 -5 16 -2 30 3 18 0 25 -12 25 -9 0 -16 3 -17 8
-7 50 -7 92 0 92 10 0 21 -35 21 -67 0 -13 5 -23 10 -23 6 0 10 -11 10 -24 0
-26 37 -56 70 -56 55 0 78 -34 106 -155 16 -71 24 -86 69 -136 43 -47 55 -70
78 -145 23 -77 36 -100 92 -169 78 -94 117 -162 179 -305 27 -62 55 -111 68
-120 13 -8 35 -28 50 -43 16 -16 28 -22 28 -14 0 27 -31 130 -74 244 -24 65
-47 127 -50 138 -15 44 80 -146 116 -235 41 -98 74 -153 40 -65 -11 28 -37 93
-57 145 -63 159 -179 379 -158 300 3 -11 3 -20 -1 -20 -9 0 -50 86 -91 194
-38 98 -130 266 -162 296 -14 14 -15 13 -9 -5 4 -11 4 -16 0 -12 -4 4 -13 2
-20 -4 -9 -7 -15 -1 -25 28 -7 21 -14 44 -15 51 -1 7 -12 34 -24 59 -13 28
-19 55 -16 69 8 29 53 54 92 51 27 -2 29 0 30 36 0 20 6 43 12 49 19 19 29
-21 47 -182 20 -190 34 -248 56 -234 13 7 1 89 -18 127 -7 15 -16 68 -18 117
-4 88 -4 90 18 90 13 0 28 5 34 11 9 9 11 4 8 -17 -5 -43 5 -73 29 -86 18 -10
19 -9 9 4 -7 8 -9 19 -5 23 4 5 1 5 -6 1 -8 -5 -11 -1 -9 15 2 12 0 40 -3 62
-11 55 -3 79 20 65 10 -7 17 -20 15 -30 -2 -10 3 -25 12 -33 8 -9 16 -30 18
-47 1 -16 6 -33 11 -37 5 -3 10 -13 11 -21 5 -43 53 -145 82 -173 31 -31 30
-29 -19 65 -28 54 -53 118 -57 143 l-6 45 34 0 c19 1 51 7 73 15 21 7 46 12
56 10 14 -3 13 4 -10 53 -24 52 -32 113 -17 128 3 3 19 -18 35 -46 25 -44 31
-49 36 -32 12 38 9 110 -6 131 -9 12 -34 41 -56 65 -23 24 -38 47 -34 50 3 4
-1 4 -9 1 -11 -4 -25 4 -41 23 -13 16 -34 35 -46 41 -12 6 -22 16 -22 20 0 18
38 -1 71 -35 18 -19 39 -34 46 -34 8 0 24 -7 36 -15 22 -14 23 -13 21 13 0 17
-7 28 -17 30 -10 2 -17 9 -17 16 0 8 -13 16 -30 20 -46 9 -36 23 22 30 l52 7
-32 16 c-17 8 -32 19 -32 23 0 17 14 18 37 3 20 -13 26 -14 33 -3 5 8 17 10
34 6 15 -4 25 -10 22 -14 -6 -10 63 -36 71 -28 4 3 0 6 -8 6 -11 0 -11 2 1 10
13 8 12 10 -3 10 -15 0 -17 6 -12 33 5 25 0 41 -24 78 -27 40 -232 253 -353
366 -49 45 -42 30 -268 643 -40 107 -107 290 -150 405 -43 116 -123 350 -178
520 -122 378 -122 376 -167 555 -21 80 -43 148 -49 152 -8 6 -8 8 0 8 6 0 17
27 24 60 13 63 9 180 -11 295 -14 81 -60 278 -67 290 -4 6 -7 12 -8 15 -4 23
-40 133 -54 165 -10 22 -20 56 -23 76 -2 19 -9 45 -15 56 -7 12 -14 45 -17 75
-4 29 -11 78 -17 108 -15 73 -14 69 -26 195 -6 60 -8 113 -5 119 3 5 1 6 -5 2
-5 -3 -13 0 -15 6 -3 7 -6 -16 -6 -52z m139 -660 c0 -5 -2 -10 -4 -10 -3 0 -8
5 -11 10 -3 6 -1 10 4 10 6 0 11 -4 11 -10z m190 -1252 c0 -18 -2 -20 -9 -8
-6 8 -7 18 -5 22 9 14 14 9 14 -14z m41 -165 c13 -16 12 -17 -3 -4 -10 7 -18
15 -18 17 0 8 8 3 21 -13z m29 -76 c0 -8 6 -27 14 -43 14 -30 31 -93 23 -84
-13 13 -55 140 -47 140 6 0 10 -6 10 -13z m55 -147 c3 -5 2 -10 -4 -10 -5 0
-13 5 -16 10 -3 6 -2 10 4 10 5 0 13 -4 16 -10z m582 -1535 c12 -21 19 -43 17
-47 -3 -4 -21 -1 -40 7 -18 7 -34 11 -35 7 0 -4 -5 6 -9 21 -20 68 31 77 67
12z m103 -355 c12 -8 11 -10 -7 -10 -12 0 -25 5 -28 10 -8 13 15 13 35 0z
m-682 -42 c2 -17 -4 -36 -17 -50 -12 -12 -21 -26 -21 -32 0 -15 -42 -56 -57
-56 -15 0 -39 35 -48 73 -6 23 -4 27 14 27 14 0 21 6 21 19 0 24 45 50 80 48
19 -2 26 -8 28 -29z m727 22 c3 -6 -1 -7 -9 -4 -18 7 -21 14 -7 14 6 0 13 -4
16 -10z m-189 -104 c-3 -17 -11 -76 -17 -131 -6 -55 -14 -106 -18 -113 -15
-26 -28 11 -34 93 -6 72 -5 78 8 61 14 -19 15 -17 15 20 0 21 7 48 15 58 8 11
15 28 15 39 0 10 5 15 11 11 6 -3 8 -20 5 -38z m77 -130 c17 -34 30 -106 19
-106 -17 1 -29 19 -50 73 -12 33 -22 65 -22 73 0 23 34 -3 53 -40z m-993 -38
c0 -18 -2 -20 -9 -8 -6 8 -7 18 -5 22 9 14 14 9 14 -14z"/>
<path d="M10830 11998 c0 -50 31 -261 41 -278 9 -14 4 66 -7 130 -2 14 -7 58
-11 98 -6 74 -23 110 -23 50z"/>
<path d="M23345 11848 c-29 -80 -122 -497 -155 -693 -44 -264 -79 -422 -111
-494 -11 -24 -17 -46 -15 -48 7 -7 63 140 79 207 9 36 35 178 57 315 23 138
66 345 95 461 30 116 56 222 59 237 5 28 -1 37 -9 15z"/>
<path d="M14540 11778 c-194 -115 -410 -201 -611 -244 -73 -15 -299 -44 -399
-50 -63 -4 -108 -9 -100 -12 8 -3 38 -16 67 -28 62 -29 130 -31 241 -8 239 49
520 159 745 294 94 56 159 100 147 99 -3 0 -43 -23 -90 -51z"/>
<path d="M10871 11693 c0 -5 4 -17 9 -28 8 -18 9 -17 9 8 1 15 -3 27 -9 27 -5
0 -10 -3 -9 -7z"/>
<path d="M10891 11615 c0 -16 6 -52 14 -80 14 -49 14 -49 10 -10 -2 22 -8 58
-13 80 -9 36 -10 37 -11 10z"/>
<path d="M19190 11481 c-55 -8 -70 -17 -70 -41 0 -45 137 -38 210 10 8 5 31
16 50 24 34 14 33 14 -55 14 -49 0 -110 -4 -135 -7z"/>
<path d="M10921 11467 c-3 -25 65 -359 99 -487 11 -41 20 -85 20 -97 0 -25 11
-28 41 -13 26 14 26 43 0 35 -17 -5 -22 1 -31 37 -6 24 -15 57 -20 73 -4 17
-11 48 -15 70 -3 22 -13 58 -20 81 -8 23 -16 59 -19 80 -3 21 -10 55 -15 74
-6 19 -11 48 -11 65 -1 27 -27 102 -29 82z"/>
<path d="M21686 11384 c-8 -20 -8 -24 2 -24 4 0 8 9 9 20 2 24 -3 26 -11 4z"/>
<path d="M20406 10964 c-267 -186 -598 -316 -965 -378 -79 -14 -150 -31 -157
-38 -12 -11 -11 -26 1 -93 19 -95 21 -282 5 -380 -51 -324 -56 -345 -151 -680
-49 -173 -173 -568 -223 -710 -14 -38 -36 -108 -50 -155 -14 -47 -55 -170 -91
-275 -36 -104 -72 -212 -79 -240 -8 -27 -19 -63 -25 -80 -5 -16 -20 -63 -32
-103 -26 -88 -52 -129 -99 -156 -31 -19 -60 -21 -300 -28 -312 -10 -347 -5
-367 52 -7 19 -12 57 -12 83 -1 56 -15 92 -65 167 -20 30 -38 70 -42 90 -11
73 -15 81 -42 91 -32 13 -115 -2 -199 -34 -40 -15 -61 -30 -74 -52 -11 -18
-29 -37 -42 -44 -13 -7 -29 -22 -36 -34 -12 -18 -11 -23 4 -32 36 -20 85 -67
85 -81 0 -8 4 -14 8 -14 13 0 33 -65 39 -125 5 -47 3 -55 -11 -55 -19 0 -22
-16 -3 -18 6 -1 46 -4 87 -7 90 -7 107 -12 93 -26 -23 -23 -1185 -36 -1214
-13 -9 7 -114 13 -299 18 -283 6 -335 10 -324 27 3 5 -1 9 -9 9 -17 0 -27 21
-27 59 0 69 -37 159 -98 240 -41 55 -67 101 -78 139 -40 138 -90 191 -265 281
-126 65 -160 103 -173 191 -4 25 -12 66 -17 92 -14 60 -7 72 84 148 39 33 79
65 87 72 8 7 53 47 100 89 157 139 840 668 886 686 7 3 37 -12 66 -33 238
-174 808 -618 808 -630 0 -3 -48 32 -107 77 -60 46 -135 104 -168 129 -79 61
-420 312 -514 379 l-74 53 -76 -53 c-77 -53 -417 -307 -526 -392 -33 -26 -109
-85 -170 -132 -121 -93 -178 -141 -155 -129 43 22 582 392 690 474 208 158
236 176 243 157 6 -16 384 -277 772 -534 105 -69 219 -146 255 -171 36 -24
164 -110 285 -189 121 -80 238 -158 260 -173 86 -59 88 -51 9 36 -98 107 -373
377 -539 529 -66 61 -167 155 -225 211 -58 55 -132 121 -165 146 -87 66 -646
468 -651 468 -2 0 -4 -23 -4 -50 l0 -50 -106 -78 c-122 -88 -615 -457 -779
-582 -166 -127 -196 -140 -105 -46 41 42 140 136 219 209 80 73 165 152 190
175 l46 44 -50 -33 c-27 -18 -66 -45 -85 -60 -38 -30 -157 -85 -166 -77 -2 3
1 18 7 34 15 36 15 226 1 384 -6 63 -14 156 -17 205 -10 161 -17 219 -35 300
-34 146 -100 318 -198 510 -53 105 -97 192 -99 194 -10 14 -68 -6 -198 -71
-683 -336 -1310 -417 -1960 -254 -260 65 -550 197 -759 344 -33 23 -62 42 -66
42 -15 0 23 -207 74 -405 189 -740 356 -1315 678 -2335 155 -491 151 -482 178
-502 71 -52 716 -141 1370 -187 158 -12 428 -26 668 -37 120 -5 152 -9 152
-20 0 -8 -6 -14 -12 -14 -80 -2 -520 2 -543 5 -16 2 -109 6 -205 10 -184 6
-540 27 -774 46 -83 6 -151 16 -168 25 -38 19 -158 31 -158 15 0 -6 5 -11 10
-11 6 0 4 -10 -4 -23 -43 -64 -64 -412 -41 -672 14 -157 19 -203 49 -415 17
-114 76 -409 106 -530 30 -118 107 -336 154 -436 112 -236 292 -416 543 -542
309 -156 837 -260 1526 -302 217 -13 875 -13 1093 0 699 42 1210 141 1541 299
450 216 656 582 793 1411 53 323 70 504 70 743 0 189 -2 210 -30 327 -16 68
-27 126 -25 128 2 3 46 10 97 17 51 6 104 16 118 22 22 9 18 11 -35 15 -61 6
-167 -9 -310 -42 -44 -10 -111 -21 -150 -24 -238 -18 -340 -26 -420 -30 -146
-9 -476 -25 -670 -32 -99 -4 -172 -10 -162 -13 17 -6 18 -8 3 -20 -12 -10 -15
-23 -10 -47 5 -25 -5 -62 -41 -156 -26 -68 -52 -129 -58 -137 -6 -7 -16 -21
-22 -31 -5 -9 -25 -42 -43 -71 -18 -30 -38 -75 -46 -100 -20 -67 -52 -132 -73
-151 -10 -8 -36 -25 -58 -36 -75 -38 -135 -122 -135 -188 0 -19 9 -62 19 -96
11 -35 25 -115 31 -178 12 -109 19 -161 35 -255 5 -31 -1 -67 -24 -148 -17
-59 -31 -116 -31 -126 0 -10 -17 -51 -38 -92 -49 -96 -63 -144 -52 -175 5 -13
39 -42 75 -66 76 -48 148 -136 166 -201 6 -23 19 -66 29 -96 21 -65 13 -101
-31 -132 -86 -61 -698 -160 -833 -135 -44 8 -104 59 -122 103 -17 40 -18 79
-2 138 15 55 9 62 -62 74 -30 5 -86 15 -125 21 -169 29 -252 65 -319 142 -93
105 -138 250 -162 518 -30 327 -4 715 57 857 41 96 141 214 224 265 56 35 181
78 229 79 23 1 54 4 70 8 26 5 28 7 13 20 -10 7 -17 21 -17 30 0 38 29 41 445
51 223 6 410 8 415 5 6 -3 10 -24 10 -46 l0 -39 75 0 75 0 0 198 c0 232 5 252
62 252 21 0 117 4 215 10 98 5 264 15 368 20 105 6 213 13 240 15 28 3 113 10
190 15 495 38 1096 126 1137 168 10 9 45 105 79 212 33 107 81 258 105 335
247 781 470 1531 579 1940 20 77 54 203 75 280 62 232 113 454 106 470 -3 8
-9 15 -13 15 -4 -1 -43 -25 -87 -56z m-6421 -1102 c14 3 33 -1 42 -8 21 -16
47 -18 38 -4 -5 8 23 8 45 0 3 -2 8 -2 13 -1 4 0 7 -6 7 -14 0 -9 9 -15 23
-15 15 0 26 -9 35 -30 8 -18 21 -30 33 -30 10 0 19 -7 19 -15 0 -8 5 -15 10
-15 6 0 10 -10 10 -21 0 -22 17 -41 74 -79 18 -13 38 -35 44 -49 12 -27 16
-35 67 -111 17 -25 39 -66 51 -93 11 -26 23 -44 27 -41 4 4 7 0 7 -8 0 -9 7
-21 15 -28 8 -7 15 -20 15 -29 0 -9 14 -43 30 -76 16 -33 30 -65 30 -71 0 -7
20 -54 43 -105 57 -122 64 -144 71 -205 6 -47 3 -55 -31 -105 -66 -98 -227
-303 -289 -369 -99 -107 -130 -175 -53 -118 l29 22 63 -31 c34 -17 86 -39 116
-48 118 -38 212 -94 299 -179 46 -44 88 -92 94 -106 16 -42 35 -173 31 -212
-4 -26 -11 -38 -26 -42 -67 -18 -608 12 -722 40 -16 4 -67 78 -71 104 -2 17
-34 138 -55 210 -6 19 -12 44 -13 55 -2 11 -10 19 -17 18 -11 -2 -14 20 -14
115 0 147 -5 188 -23 232 -19 46 -31 137 -38 285 -4 91 -10 129 -25 158 -10
21 -19 50 -19 66 0 16 -7 46 -16 66 -13 32 -14 42 -3 62 9 18 10 29 3 41 -6 9
-8 26 -4 37 9 26 2 79 -16 113 -10 19 -10 28 -2 33 9 6 8 12 -1 23 -8 9 -15
39 -17 66 -2 28 -8 59 -14 70 -13 25 -2 100 16 107 8 3 14 9 14 15 0 5 -4 7
-9 3 -21 -12 -22 18 -2 36 12 11 19 24 16 30 -4 5 0 9 8 9 10 0 13 7 10 19 -2
10 2 25 11 33 13 14 12 16 -10 16 -14 0 -27 2 -30 5 -12 11 8 27 34 27 20 0
23 3 13 9 -8 5 -20 7 -28 4 -9 -3 -13 3 -13 20 0 13 -7 30 -15 37 -19 16 -19
40 1 68 12 18 19 21 30 11 8 -6 25 -9 39 -7z m927 -2484 c66 -28 149 -118 178
-193 21 -56 22 -76 23 -275 0 -158 -4 -243 -17 -320 -37 -230 -42 -277 -50
-486 -5 -116 -3 -159 8 -190 8 -23 16 -56 19 -75 7 -48 48 -159 94 -260 70
-149 107 -274 108 -357 0 -72 -1 -74 -36 -107 -46 -41 -118 -53 -229 -37 -142
21 -260 91 -330 197 -35 52 -80 154 -93 210 -1 6 -8 24 -14 40 -21 58 -36 159
-47 315 -1 19 -5 46 -9 60 -11 44 -18 103 -24 200 -3 52 -9 100 -13 105 -5 6
-7 25 -6 43 1 18 -2 35 -6 38 -5 3 -6 20 -2 39 7 39 -12 140 -33 171 -9 15
-16 59 -19 126 -2 57 -9 141 -15 187 -20 149 10 326 72 428 47 76 52 81 99
110 104 62 240 75 342 31z m566 -236 c4 -38 29 -52 92 -52 21 0 42 -5 45 -10
4 -7 -47 -10 -157 -8 l-163 3 -3 53 -3 53 93 -3 93 -3 3 -33z m2722 -44 c51
-26 106 -98 165 -214 30 -62 39 -95 59 -231 13 -88 22 -186 19 -219 -2 -32 -8
-135 -13 -229 -13 -239 -50 -381 -151 -583 -67 -132 -82 -154 -157 -228 -102
-102 -196 -154 -276 -154 -96 1 -199 61 -282 164 -31 39 -45 68 -57 121 -37
163 -42 288 -16 420 5 28 14 116 20 195 19 267 34 365 68 428 6 12 20 50 31
85 30 96 187 287 305 372 76 54 116 74 168 85 64 12 70 12 117 -12z"/>
<path d="M21419 10738 c-13 -43 1 -81 29 -83 27 -2 27 0 1 26 -12 12 -19 29
-16 40 3 10 1 19 -4 19 -5 0 -9 -1 -10 -2z"/>
<path d="M9570 10726 c0 -23 75 -162 108 -198 46 -51 118 -98 197 -128 46 -17
90 -24 185 -29 l125 -6 36 -71 c19 -40 51 -117 69 -172 19 -56 36 -99 38 -97
9 9 -82 257 -112 307 l-32 53 -130 6 c-133 7 -208 25 -278 68 -59 37 -126 117
-166 197 -22 43 -40 75 -40 70z"/>
<path d="M22858 10429 c-21 -11 -38 -21 -38 -24 0 -6 73 25 85 36 14 14 -6 9
-47 -12z"/>
<path d="M22458 10302 c-65 -109 -135 -354 -258 -892 -164 -723 -289 -1162
-409 -1443 -20 -45 -20 -46 -53 -36 -18 5 -65 9 -104 9 -50 0 -85 6 -115 20
-67 30 -185 24 -165 -8 11 -17 -25 -80 -48 -84 -42 -7 -56 2 -56 36 0 32 -2
33 -67 52 -87 24 -271 24 -358 1 -32 -9 -60 -15 -62 -13 -2 1 4 17 13 35 17
34 13 89 -12 148 -7 18 -10 48 -7 66 3 22 -4 61 -22 115 -17 51 -24 89 -20
103 7 22 7 22 -21 -2 -123 -106 -332 -335 -447 -490 -58 -79 -87 -99 -170
-114 -20 -4 -41 -13 -47 -20 -13 -15 72 0 188 35 40 12 78 19 85 17 21 -8 -43
-28 -167 -53 -66 -14 -122 -27 -125 -31 -6 -5 82 1 174 13 62 8 22 -11 -64
-30 -84 -19 -121 -35 -82 -36 17 0 22 -4 18 -17 -2 -10 -6 -25 -8 -33 -2 -8
-7 -17 -10 -20 -16 -14 -92 -136 -137 -220 -60 -113 -113 -244 -176 -439 -58
-177 -58 -225 0 -91 22 52 45 94 50 93 5 -1 39 52 74 117 89 165 120 196 145
142 14 -30 19 -28 44 21 30 58 89 137 102 137 21 0 -1 -48 -66 -145 -76 -114
-113 -187 -122 -239 -4 -29 -3 -37 8 -36 31 5 48 -1 85 -31 68 -54 70 -54 104
-7 42 57 63 67 141 68 60 0 70 3 121 40 51 36 59 47 97 137 23 54 43 105 44
113 7 41 52 150 65 155 12 4 14 -2 9 -32 -9 -58 -15 -80 -27 -103 -6 -12 -9
-28 -6 -36 3 -8 1 -14 -4 -14 -6 0 -10 -7 -10 -15 0 -9 -18 -44 -40 -79 -22
-35 -40 -71 -40 -80 0 -9 -7 -32 -14 -51 l-15 -35 41 0 41 0 -7 -42 c-3 -24
-9 -54 -12 -68 -11 -40 12 -11 27 35 8 25 14 33 17 23 3 -14 12 -11 57 19 50
34 54 40 70 102 9 36 21 120 26 186 14 174 15 185 27 197 31 31 27 -114 -8
-290 -22 -115 -25 -146 -10 -137 6 3 7 -1 4 -9 -8 -20 3 -20 23 -1 25 25 48
14 51 -25 3 -25 14 -45 43 -71 38 -35 39 -38 39 -102 0 -60 2 -67 31 -91 16
-14 38 -30 47 -35 14 -8 15 -15 5 -53 -6 -23 -11 -44 -9 -45 2 -3 96 215 114
264 11 31 33 160 47 268 11 90 19 126 26 131 16 9 9 -119 -11 -226 -11 -58
-20 -123 -20 -144 0 -39 1 -38 39 40 21 43 46 96 56 117 10 21 20 36 23 33 2
-3 -1 -33 -7 -68 -6 -35 -13 -75 -15 -90 -3 -15 -7 -32 -10 -37 -4 -5 -2 -13
4 -16 7 -4 10 -45 9 -108 -1 -74 3 -112 15 -138 12 -30 13 -48 6 -95 -23 -138
-2 -102 50 86 19 71 32 151 40 249 12 152 30 221 79 296 22 34 26 37 29 19 1
-11 -9 -69 -23 -128 -27 -117 -24 -146 18 -146 12 0 28 -9 34 -20 16 -25 18
-152 4 -214 -7 -28 -9 -72 -6 -101 4 -28 2 -78 -4 -110 -6 -33 -16 -99 -21
-147 -6 -48 -26 -140 -46 -205 -20 -65 -36 -131 -35 -148 1 -37 -22 -120 -56
-200 -41 -99 -90 -199 -107 -220 l-17 -20 5 20 c2 11 7 36 10 55 l6 35 -15
-30 c-8 -16 -14 -38 -15 -47 0 -9 -4 -27 -9 -40 -5 -13 -15 -43 -22 -68 -26
-92 -121 -260 -146 -260 -17 0 -18 -5 22 100 19 51 32 96 29 101 -3 5 9 60 26
121 45 158 34 218 -42 218 -34 0 -49 -26 -79 -137 -12 -43 -28 -91 -36 -107
-19 -36 -5 -71 33 -88 24 -11 26 -16 20 -56 -3 -24 -21 -72 -38 -105 -32 -60
-34 -62 -68 -59 -19 2 -43 12 -53 21 -18 17 -18 20 -3 49 23 45 20 59 -9 32
-14 -13 -28 -20 -31 -17 -6 5 29 112 61 190 5 11 3 17 -7 17 -18 0 -10 84 16
172 16 52 16 91 0 150 -4 15 -8 14 -39 -5 -19 -12 -32 -28 -30 -34 2 -7 0 -13
-4 -13 -5 0 -17 -3 -27 -7 -15 -6 -16 -1 -11 37 l5 43 -20 -34 c-11 -19 -32
-63 -45 -97 -13 -35 -33 -82 -45 -105 -12 -23 -23 -44 -23 -47 -3 -14 -46 -90
-55 -95 -18 -11 -11 22 20 90 17 37 30 69 30 71 0 2 -9 4 -20 4 -11 0 -29 9
-41 21 -19 19 -21 28 -14 105 7 81 6 85 -26 144 -38 71 -52 81 -116 79 -26 -1
-60 3 -74 9 -22 9 -26 15 -21 38 3 19 1 25 -7 20 -6 -4 -11 -14 -11 -23 0 -9
-3 -13 -7 -10 -3 4 -18 -3 -31 -15 l-24 -23 8 25 c22 69 21 70 -131 132 -77
31 -154 57 -172 57 -29 1 -33 -3 -42 -36 -13 -49 -19 -81 -25 -118 -2 -16 -7
-48 -11 -70 -7 -38 -6 -39 9 -20 12 16 15 17 16 4 0 -22 205 -122 252 -123 42
-1 47 -12 19 -47 -10 -13 -32 -52 -49 -85 -17 -34 -38 -64 -46 -67 -8 -3 -57
13 -108 37 -51 24 -104 47 -117 51 -21 6 -23 11 -18 54 l6 46 -28 -55 c-32
-61 -66 -86 -105 -76 -54 13 -59 29 -51 150 10 149 10 155 18 162 4 4 7 16 7
28 0 12 -4 16 -9 11 -13 -14 -38 -128 -57 -260 -9 -60 -18 -112 -20 -115 -13
-13 -39 21 -42 56 -4 58 -14 75 -21 39 -3 -16 -11 -30 -16 -30 -5 0 -13 14
-16 30 -5 25 -7 21 -8 -20 -3 -105 -40 -96 -42 10 0 33 0 78 1 100 2 40 3 48
16 138 8 54 -10 67 -20 14 -12 -64 -26 -248 -20 -258 3 -6 1 -45 -6 -87 -11
-68 -11 -88 5 -162 10 -47 21 -111 25 -143 9 -67 82 -199 109 -196 9 1 18 0
21 -1 17 -6 48 -5 44 2 -3 4 -3 8 1 8 10 0 120 -75 128 -88 6 -9 13 -9 28 -2
13 7 19 7 19 0 0 -16 48 -12 58 6 4 8 6 28 4 45 l-4 29 -19 -21 -18 -21 -48
41 c-26 22 -58 48 -71 58 l-22 18 21 39 c11 22 23 51 26 65 2 13 7 29 11 35 3
6 5 19 4 29 -2 9 2 17 7 17 6 0 11 7 11 15 0 27 49 16 119 -25 37 -22 71 -40
76 -40 4 0 24 12 42 26 42 32 49 27 83 -59 42 -108 151 -188 278 -205 61 -9
63 -8 82 19 11 15 33 56 49 92 28 62 51 92 51 65 -1 -7 -7 -42 -15 -78 -44
-198 17 -295 145 -230 50 25 51 25 40 -5 -9 -23 -5 -29 41 -65 28 -22 60 -40
70 -40 135 0 391 447 622 1085 102 283 218 672 217 727 -1 7 -27 -64 -58 -159
-49 -146 -85 -223 -98 -210 -2 2 8 50 22 108 42 175 63 279 79 392 23 161 52
274 88 343 16 30 15 31 35 -31 9 -29 9 -29 21 25 14 61 30 254 25 285 -2 11
-4 50 -5 86 -1 61 1 69 35 113 46 60 47 88 10 238 -4 19 14 81 69 230 62 169
167 490 191 588 4 14 29 115 57 225 28 110 52 207 54 215 22 94 61 265 91 395
20 88 43 189 50 225 44 197 145 521 182 578 8 12 13 25 10 27 -2 2 -11 -8 -20
-23z m-1985 -2483 c-6 -6 -30 -15 -53 -19 -46 -8 -45 -1 3 17 43 16 64 16 50
2z m-23 -126 c0 -11 -83 -93 -93 -93 -12 0 20 49 50 78 24 22 43 29 43 15z
m720 -13 c0 -15 -26 -23 -41 -14 -9 5 -7 10 7 15 27 11 34 10 34 -1z m488 -64
c2 -3 1 -9 -2 -15 -8 -12 -66 6 -66 21 0 10 57 4 68 -6z m-806 -515 c3 -23 1
-27 -14 -23 -10 2 -18 6 -18 8 0 4 24 44 26 44 1 0 4 -13 6 -29z m-1385 -1463
c-3 -7 -5 -2 -5 12 0 14 2 19 5 13 2 -7 2 -19 0 -25z m861 -5 c42 -36 45 -121
6 -164 -19 -21 -64 -25 -82 -7 -23 23 -10 114 23 164 18 29 26 30 53 7z m382
-219 c0 -46 -38 -134 -58 -134 -20 0 -10 75 18 130 25 50 40 51 40 4z"/>
<path d="M21446 10237 c-9 -23 -16 -51 -16 -60 0 -10 -7 -29 -16 -42 -9 -14
-13 -25 -10 -25 4 0 2 -9 -4 -21 -6 -11 -13 -30 -16 -42 -7 -37 -35 -131 -45
-149 -6 -11 -6 -18 0 -18 14 0 34 48 66 155 15 50 33 106 40 125 14 40 29 120
22 120 -2 0 -12 -19 -21 -43z"/>
<path d="M10331 9994 c0 -11 3 -14 6 -6 3 7 2 16 -1 19 -3 4 -6 -2 -5 -13z"/>
<path d="M10341 9960 c0 -8 4 -24 9 -35 5 -13 9 -14 9 -5 0 8 -4 24 -9 35 -5
13 -9 14 -9 5z"/>
<path d="M10361 9884 c0 -11 3 -14 6 -6 3 7 2 16 -1 19 -3 4 -6 -2 -5 -13z"/>
<path d="M10371 9844 c0 -11 3 -14 6 -6 3 7 2 16 -1 19 -3 4 -6 -2 -5 -13z"/>
<path d="M21318 9823 c0 -5 -2 -12 -3 -18 -1 -5 -9 -28 -19 -50 -14 -32 -74
-207 -82 -237 -1 -5 -2 -9 -4 -10 -1 -2 -3 -10 -5 -18 -2 -8 -18 -51 -35 -95
-17 -44 -54 -143 -82 -220 -28 -77 -61 -166 -74 -197 -25 -60 -30 -113 -14
-138 9 -13 11 -13 20 0 5 8 10 24 11 35 1 11 3 34 5 50 1 17 53 170 114 340
62 171 118 333 126 360 8 28 24 75 34 105 11 30 19 65 18 78 -2 22 -7 29 -10
15z"/>
<path d="M10381 9804 c0 -11 3 -14 6 -6 3 7 2 16 -1 19 -3 4 -6 -2 -5 -13z"/>
<path d="M10392 9760 c0 -14 2 -19 5 -12 2 6 2 18 0 25 -3 6 -5 1 -5 -13z"/>
<path d="M10401 9714 c0 -11 3 -14 6 -6 3 7 2 16 -1 19 -3 4 -6 -2 -5 -13z"/>
<path d="M10411 9674 c0 -11 3 -14 6 -6 3 7 2 16 -1 19 -3 4 -6 -2 -5 -13z"/>
<path d="M10421 9634 c0 -11 3 -14 6 -6 3 7 2 16 -1 19 -3 4 -6 -2 -5 -13z"/>
<path d="M10431 9594 c0 -11 3 -14 6 -6 3 7 2 16 -1 19 -3 4 -6 -2 -5 -13z"/>
<path d="M10441 9544 c0 -11 3 -14 6 -6 3 7 2 16 -1 19 -3 4 -6 -2 -5 -13z"/>
<path d="M10451 9512 c-1 -17 48 -245 54 -251 9 -8 5 15 -20 130 -27 122 -33
141 -34 121z"/>
<path d="M17733 9355 c-60 -64 -153 -228 -160 -283 -4 -35 -1 -40 69 -101 201
-174 403 -390 636 -677 75 -92 134 -144 212 -183 14 -7 -11 24 -56 70 -44 46
-130 140 -190 209 -59 69 -165 184 -234 255 -69 72 -143 149 -164 172 l-39 42
17 39 c12 25 17 60 16 103 -1 35 2 125 5 199 7 128 6 137 -15 173 -12 20 -27
37 -33 37 -6 0 -35 -25 -64 -55z"/>
<path d="M10511 9234 c0 -11 3 -14 6 -6 3 7 2 16 -1 19 -3 4 -6 -2 -5 -13z"/>
<path d="M10531 9154 c0 -11 3 -14 6 -6 3 7 2 16 -1 19 -3 4 -6 -2 -5 -13z"/>
<path d="M10541 9104 c0 -11 3 -14 6 -6 3 7 2 16 -1 19 -3 4 -6 -2 -5 -13z"/>
<path d="M10552 9065 c0 -11 4 -31 8 -45 6 -20 8 -21 8 -5 0 11 -4 31 -8 45
-6 20 -8 21 -8 5z"/>
<path d="M10571 8974 c0 -11 3 -14 6 -6 3 7 2 16 -1 19 -3 4 -6 -2 -5 -13z"/>
<path d="M10580 8945 c0 -14 92 -360 127 -475 41 -139 109 -336 152 -444 18
-43 34 -90 36 -105 14 -85 25 -132 31 -143 5 -7 9 -19 10 -28 6 -34 11 -50 19
-57 4 -4 5 3 1 17 -4 14 -9 45 -12 70 -8 87 -15 124 -23 135 -13 15 -112 281
-164 440 -57 175 -86 273 -132 450 -34 127 -45 163 -45 140z"/>
<path d="M20726 8515 c-9 -26 -7 -32 5 -12 6 10 9 21 6 23 -2 3 -7 -2 -11 -11z"/>
<path d="M11674 7895 c-23 -15 -59 -83 -50 -92 3 -3 14 10 26 29 11 19 31 41
45 48 13 7 22 17 19 22 -7 12 -17 10 -40 -7z"/>
<path d="M12380 7780 c34 -11 60 -11 35 0 -11 5 -29 8 -40 8 -16 0 -15 -2 5
-8z"/>
<path d="M12290 7756 c0 -2 7 -9 15 -16 13 -11 14 -10 9 4 -5 14 -24 23 -24
12z"/>
<path d="M12545 7746 c22 -7 54 -16 70 -19 l30 -6 -30 13 c-16 7 -48 16 -70
19 l-40 6 40 -13z"/>
<path d="M12883 7723 c9 -2 15 -8 12 -12 -7 -13 110 -33 142 -24 24 6 15 10
-57 24 -76 16 -145 24 -97 12z"/>
<path d="M12640 7680 c0 -6 5 -16 10 -23 6 -7 17 -21 26 -32 13 -17 13 -15 -1
19 -8 21 -15 40 -15 42 0 2 -4 4 -10 4 -5 0 -10 -5 -10 -10z"/>
<path d="M13078 7683 c6 -2 18 -2 25 0 6 3 1 5 -13 5 -14 0 -19 -2 -12 -5z"/>
<path d="M19863 7660 c-22 -9 -51 -87 -88 -230 -9 -36 -34 -121 -56 -190 -47
-152 -50 -183 -5 -75 38 93 146 342 187 433 16 34 29 65 29 67 0 8 -43 5 -67
-5z"/>
<path d="M12847 7609 c4 -36 3 -41 -11 -36 -9 4 -16 2 -16 -3 0 -20 52 -188
129 -418 98 -292 152 -503 197 -771 18 -113 41 -235 49 -271 8 -36 22 -126 31
-200 20 -173 19 -169 25 -174 6 -6 -5 -163 -12 -170 -9 -9 -40 5 -33 15 3 5 1
9 -5 9 -5 0 -10 8 -9 18 1 50 -12 365 -16 370 -2 4 -9 61 -16 127 -14 145 -41
291 -82 445 -43 164 -174 554 -209 624 -16 33 -29 66 -30 75 0 11 -2 12 -6 3
-3 -7 0 -25 5 -40 6 -15 20 -76 32 -137 13 -60 42 -180 66 -265 64 -229 86
-343 104 -525 6 -60 20 -146 31 -190 11 -43 24 -138 29 -210 4 -71 11 -137 14
-145 13 -34 12 -153 -2 -166 -15 -15 -46 -19 -38 -5 4 5 2 11 -4 13 -14 4 -31
144 -29 225 5 145 -45 443 -107 633 l-28 85 -7 -55 c-7 -61 -32 -152 -60 -220
-25 -60 -30 -158 -7 -144 7 5 8 3 3 -6 -4 -7 -3 -15 2 -19 13 -8 53 -128 53
-157 0 -13 -4 -26 -10 -29 -17 -10 -11 -72 13 -143 12 -37 21 -77 19 -90 -3
-22 -4 -22 -33 -5 -18 11 -29 26 -29 40 0 12 -4 25 -10 28 -14 9 -197 -78
-193 -92 3 -7 -3 -9 -16 -6 -26 7 -26 2 -1 -47 46 -91 11 -93 -74 -6 -59 60
-63 63 -64 38 -1 -38 -37 -118 -57 -126 -9 -3 -24 -2 -34 4 -19 10 -88 99
-110 141 -14 28 -37 32 -51 9 -5 -9 0 -24 15 -44 38 -51 85 -153 85 -185 0
-38 -33 -62 -95 -69 -51 -5 -67 4 -95 57 -12 22 -19 29 -20 19 0 -26 -17 -22
-37 10 -10 15 -23 33 -29 39 -26 27 -55 84 -83 162 -28 77 -109 227 -118 217
-6 -6 44 -175 64 -212 10 -18 40 -71 66 -118 40 -71 49 -97 54 -151 4 -51 2
-65 -9 -65 -21 0 -43 31 -92 132 -34 68 -46 86 -46 66 0 -15 4 -30 10 -33 11
-7 73 -136 96 -199 16 -44 6 -66 -31 -66 -26 0 -57 52 -103 171 -16 42 -43 96
-59 120 -36 52 -86 149 -114 222 -25 66 -111 248 -115 244 -7 -7 163 -443 202
-518 12 -25 44 -127 44 -144 0 -2 -16 -9 -35 -15 -23 -8 -35 -18 -35 -30 0
-10 -5 -22 -12 -26 -7 -4 -8 -3 -4 4 4 7 2 12 -3 12 -14 0 -14 0 9 -53 21 -47
18 -82 -7 -73 -8 3 -16 6 -19 6 -7 0 -56 102 -81 170 -13 36 -44 99 -67 140
-24 41 -58 113 -76 160 -89 230 -206 483 -250 540 -54 68 -181 471 -165 521 4
11 -5 54 -19 97 -36 111 -65 229 -81 339 -8 53 -17 98 -20 101 -11 11 -4 -117
11 -203 72 -416 276 -1067 469 -1500 47 -105 176 -358 212 -415 83 -130 180
-230 224 -230 10 0 44 16 75 36 51 33 56 38 50 65 -3 16 -4 29 -3 29 2 0 20
-9 42 -20 56 -28 91 -26 126 9 27 27 29 35 29 103 0 40 -7 100 -15 133 -28
116 -16 111 56 -23 55 -100 66 -106 167 -77 133 38 210 123 258 284 3 10 16 3
44 -24 l39 -38 50 26 c27 15 65 36 83 47 18 11 39 20 47 20 19 0 54 -48 57
-79 2 -15 15 -53 29 -84 14 -32 25 -63 25 -70 0 -7 -23 -35 -50 -62 -40 -39
-58 -50 -83 -50 l-32 0 -11 -72 -10 -71 21 14 c12 8 38 32 57 53 38 42 125
102 193 132 70 31 91 61 131 183 42 127 54 240 33 302 -8 26 -13 106 -14 244
-2 135 -8 239 -19 305 -59 358 -87 494 -147 720 -23 83 -47 174 -55 204 -8 30
-48 156 -88 280 -41 124 -77 241 -81 259 -4 22 -12 32 -24 32 -16 0 -18 -7
-14 -41z m-1357 -2077 c17 -41 29 -76 27 -78 -11 -11 -97 172 -97 204 1 22 30
-31 70 -126z"/>
<path d="M13390 7630 c8 -5 20 -10 25 -10 6 0 3 5 -5 10 -8 5 -19 10 -25 10
-5 0 -3 -5 5 -10z"/>
<path d="M12403 7595 c1 -11 6 -26 11 -33 4 -7 6 -16 3 -19 -3 -3 13 -32 36
-64 93 -131 110 -159 168 -271 33 -65 64 -118 69 -118 13 0 12 5 -4 68 -17 63
-54 129 -111 197 -23 28 -59 82 -79 120 -42 81 -97 152 -93 120z"/>
<path d="M12106 7032 c6 -46 36 -143 96 -309 26 -73 32 -82 51 -78 12 2 95 21
185 41 l163 38 -7 30 c-4 17 -21 60 -38 96 -24 50 -40 70 -71 87 -59 33 -65
27 -17 -18 23 -22 42 -42 42 -44 0 -13 -56 -2 -120 24 -70 29 -260 146 -260
161 0 4 -7 10 -15 14 -12 4 -13 -3 -9 -42z"/>
<path d="M11525 7027 c4 -58 22 -117 46 -148 19 -24 19 -24 4 26 -9 28 -21 73
-27 100 -15 66 -26 77 -23 22z"/>
<path d="M21831 6608 c-7 -40 -15 -84 -18 -98 -5 -24 -5 -24 10 -6 14 19 15
19 31 -10 16 -28 17 -26 11 66 -6 115 -7 120 -15 120 -4 0 -12 -33 -19 -72z"/>
<path d="M11653 6500 c11 -38 101 -250 104 -246 5 4 -73 201 -93 235 -9 14
-13 19 -11 11z"/>
<path d="M10865 6426 c-7 -37 22 -208 51 -301 55 -172 148 -364 205 -420 l20
-20 -17 45 c-10 25 -33 72 -50 105 -18 33 -44 102 -57 152 -18 68 -32 100 -53
121 -40 39 -72 162 -43 162 8 0 8 4 1 13 -6 6 -18 48 -27 92 -9 44 -18 81 -20
83 -2 2 -7 -12 -10 -32z"/>
<path d="M21786 6276 c-13 -64 -38 -117 -59 -125 -11 -4 -26 -27 -36 -57 -15
-42 -16 -52 -4 -70 12 -18 11 -28 -7 -68 -11 -26 -32 -59 -48 -74 -29 -27
-100 -177 -90 -188 10 -9 83 95 123 176 77 155 142 361 133 422 -3 18 -5 14
-12 -16z"/>
<path d="M11760 6235 c0 -5 5 -17 10 -25 5 -8 10 -10 10 -5 0 6 -5 17 -10 25
-5 8 -10 11 -10 5z"/>
<path d="M12299 6058 c11 -32 23 -79 26 -105 17 -125 24 -147 58 -167 17 -11
36 -19 40 -18 5 2 6 -2 2 -8 -3 -5 6 -22 20 -37 l27 -28 -16 32 c-9 18 -16 38
-16 46 0 7 -14 56 -31 108 -31 93 -63 155 -106 207 l-23 27 19 -57z"/>
<path d="M19490 6068 c0 -49 5 -47 13 5 3 20 2 37 -4 37 -5 0 -9 -19 -9 -42z"/>
<path d="M19637 6031 c-4 -17 -3 -21 5 -13 5 5 8 16 6 23 -3 8 -7 3 -11 -10z"/>
<path d="M21615 5970 c-3 -6 1 -7 9 -4 18 7 21 14 7 14 -6 0 -13 -4 -16 -10z"/>
<path d="M19473 5935 c0 -22 2 -30 4 -17 2 12 2 30 0 40 -3 9 -5 -1 -4 -23z"/>
<path d="M19517 5946 c-4 -10 -7 -25 -6 -34 0 -11 4 -9 10 7 5 13 8 29 6 35
-2 5 -6 2 -10 -8z"/>
<path d="M19502 5830 c0 -14 2 -19 5 -12 2 6 2 18 0 25 -3 6 -5 1 -5 -13z"/>
<path d="M11970 5791 c0 -15 40 -113 52 -126 5 -5 -3 22 -17 60 -28 73 -35 87
-35 66z"/>
<path d="M21555 5644 c-38 -41 -74 -82 -78 -90 -8 -14 -6 -14 20 0 17 8 48 39
70 68 37 49 68 98 61 98 -2 -1 -34 -35 -73 -76z"/>
<path d="M12064 5565 c23 -61 66 -138 66 -120 0 24 -32 110 -45 124 -9 9 -22
25 -30 36 -8 11 -4 -7 9 -40z"/>
<path d="M11645 5408 c4 -13 11 -27 16 -33 5 -5 4 5 -2 23 -12 36 -24 44 -14
10z"/>
</g>
</svg>
